<?xml version="1.0" encoding="utf-8"?>
<svg version="1.1" xmlns:xlink="http://www.w3.org/1999/xlink" width="25px" height="25px" xmlns="http://www.w3.org/2000/svg">
  <g transform="matrix(1 0 0 1 -1333 -7 )">
    <path d="M 24.9335106382979 12.5332446808511  C 24.9335106382979 5.64660904255319  19.3533909574468 0.0664893617021277  12.4667553191489 0.0664893617021277  C 5.58011968085106 0.0664893617021277  0 5.64660904255319  0 12.5332446808511  C 0 19.4198803191489  5.58011968085106 25  12.4667553191489 25  C 19.3533909574468 25  24.9335106382979 19.4198803191489  24.9335106382979 12.5332446808511  Z M 17.1359707446809 2.80086436170213  C 20.5219414893617 4.4281914893617  22.9072473404255 7.77094414893617  23.2114361702128 11.7021276595745  L 19.9185505319149 11.7021276595745  C 19.7755984042553 8.10339095744681  18.7250664893617 4.92353723404255  17.1359707446809 2.80086436170213  Z M 13.2978723404255 1.85172872340425  C 15.9690824468085 2.56316489361702  18.0335771276596 6.64561170212766  18.2430186170213 11.7021276595745  L 13.2978723404255 11.7021276595745  L 13.2978723404255 1.85172872340425  Z M 6.6904920212766 11.7021276595745  C 6.8999335106383 6.64561170212766  8.96442819148936 2.56316489361702  11.6356382978723 1.85172872340425  L 11.6356382978723 11.7021276595745  L 6.6904920212766 11.7021276595745  Z M 1.72207446808511 11.7021276595745  C 2.02626329787234 7.77094414893617  4.41156914893617 4.4281914893617  7.79920212765958 2.80086436170213  C 6.20844414893617 4.92353723404255  5.15957446808511 8.10339095744681  5.01662234042553 11.7021276595745  L 1.72207446808511 11.7021276595745  Z M 7.79753989361702 22.265625  C 4.41156914893617 20.6382978723404  2.02626329787234 17.295545212766  1.72207446808511 13.3643617021277  L 5.01496010638298 13.3643617021277  C 5.15791223404255 16.9630984042553  6.20844414893617 20.1429521276596  7.79753989361702 22.265625  Z M 11.6356382978723 23.2147606382979  C 8.96442819148936 22.5033244680851  6.8999335106383 18.4208776595745  6.6904920212766 13.3643617021277  L 11.6356382978723 13.3643617021277  L 11.6356382978723 23.2147606382979  Z M 18.2430186170213 13.3643617021277  C 18.0335771276596 18.4208776595745  15.9690824468085 22.5033244680851  13.2978723404255 23.2147606382979  L 13.2978723404255 13.3643617021277  L 18.2430186170213 13.3643617021277  Z M 23.2097739361702 13.3643617021277  C 22.9072473404255 17.295545212766  20.5219414893617 20.6382978723404  17.1343085106383 22.265625  C 18.7250664893617 20.1429521276596  19.7739361702128 16.9630984042553  19.9168882978723 13.3643617021277  L 23.2097739361702 13.3643617021277  Z " fill-rule="nonzero" fill="#7f7f7f" stroke="none" transform="matrix(1 0 0 1 1333 7 )" />
  </g>
</svg>