<?xml version="1.0" encoding="utf-8"?>
<svg version="1.1" xmlns:xlink="http://www.w3.org/1999/xlink" width="7px" height="7px" xmlns="http://www.w3.org/2000/svg">
  <g transform="matrix(1 0 0 1 -346 -3 )">
    <path d="M 5.95757556352459 5.96929881198347  C 7.30907402663934 4.60550103305785  7.30907402663934 2.39427298553719  5.95757556352459 1.03160511363636  C 4.60495645491803 -0.332192665289256  2.41185322745902 -0.332192665289256  1.06035476434426 1.03160511363636  C -0.291143698770493 2.39540289256198  -0.292264344262295 4.60663094008264  1.06035476434426 5.96929881198347  C 2.41297387295082 7.33309659090909  4.60607710040984 7.33309659090909  5.95757556352459 5.96929881198347  Z M 5.4813012295082 5.49699767561984  C 5.32329021516393 5.65518465909091  5.06778304303279 5.65518465909091  4.91089267418033 5.49586776859504  L 3.50672387295082 4.08122417355372  L 2.10927894467213 5.49021823347107  C 1.95126793032787 5.64953512396694  1.69576075819672 5.64953512396694  1.53887038934426 5.49021823347107  C 1.380859375 5.33090134297521  1.380859375 5.07328254132231  1.53887038934426 4.91509555785124  L 2.93631531762295 3.50610149793388  L 1.54335297131148 2.10049715909091  C 1.38534195696721 1.94118026859504  1.38534195696721 1.68356146694215  1.54335297131148 1.52537448347108  C 1.70136398565574 1.36605759297521  1.95687115778688 1.36605759297521  2.11376152663934 1.52537448347108  L 3.50784451844262 2.93097882231405  L 4.92321977459016 1.50390625  C 5.08123078893443 1.34458935950413  5.33673796106557 1.34458935950413  5.49362832991803 1.50390625  C 5.65163934426229 1.66322314049587  5.65163934426229 1.92084194214876  5.49362832991803 2.07902892561983  L 4.07713242827869 3.50610149793388  L 5.4813012295082 4.921875  C 5.63931224385246 5.08119189049587  5.63931224385246 5.33881069214876  5.4813012295082 5.49699767561984  Z " fill-rule="nonzero" fill="#000000" stroke="none" transform="matrix(1 0 0 1 346 3 )" />
  </g>
</svg>