<?xml version="1.0" encoding="utf-8"?>
<svg version="1.1" xmlns:xlink="http://www.w3.org/1999/xlink" width="16px" height="16px" xmlns="http://www.w3.org/2000/svg">
  <g transform="matrix(1 0 0 1 -459 -3345 )">
    <path d="M 467 3346  C 470.92 3346  474 3349.08  474 3353  C 474 3356.92  470.92 3360  467 3360  C 463.08 3360  460 3356.92  460 3353  C 460 3349.08  463.08 3346  467 3346  Z " fill-rule="nonzero" fill="#ffffff" stroke="none" />
    <path d="M 467 3346  C 470.92 3346  474 3349.08  474 3353  C 474 3356.92  470.92 3360  467 3360  C 463.08 3360  460 3356.92  460 3353  C 460 3349.08  463.08 3346  467 3346  Z " stroke-width="2" stroke="#797979" fill="none" />
  </g>
</svg>