<?xml version="1.0" encoding="utf-8"?>
<svg version="1.1" xmlns:xlink="http://www.w3.org/1999/xlink" width="21px" height="21px" xmlns="http://www.w3.org/2000/svg">
  <g transform="matrix(1 0 0 1 -209 -9 )">
    <path d="M 20.8461540555871 21  L 0.0357790130459444 21  L 0.0357790130459444 18  L 20.8461540555871 18  L 20.8461540555871 21  Z M 20.8461540555871 14.4361170731707  L 7.83966965399887 14.4361170731707  L 7.83966965399887 11.8144975609756  L 20.8461540555871 11.8144975609756  L 20.8461540555871 14.4361170731707  Z M 5.23837277368122 14.4361170731707  L 0.0357790130459444 10.5032780487805  L 5.23837277368122 6.57125853658537  L 5.23837277368122 14.4361170731707  Z M 20.8461540555871 9.19287804878049  L 7.83966965399887 9.19287804878049  L 7.83966965399887 6.57125853658537  L 20.8461540555871 6.57125853658537  L 20.8461540555871 9.19287804878049  Z M 20.8461540555871 3  L 0.0357790130459444 3  L 0.0357790130459444 0  L 20.8461540555871 0  L 20.8461540555871 3  Z " fill-rule="nonzero" fill="#a6a6a6" stroke="none" transform="matrix(1 0 0 1 209 9 )" />
  </g>
</svg>