<?xml version="1.0" encoding="utf-8"?>
<svg version="1.1" xmlns:xlink="http://www.w3.org/1999/xlink" width="898px" height="178px" xmlns="http://www.w3.org/2000/svg">
  <g transform="matrix(1 0 0 1 -402 -252 )">
    <path d="M 403 261  A 8 8 0 0 1 411 253 L 1291 253  A 8 8 0 0 1 1299 261 L 1299 421  A 8 8 0 0 1 1291 429 L 411 429  A 8 8 0 0 1 403 421 L 403 261  Z " fill-rule="nonzero" fill="#f2f2f2" stroke="none" />
    <path d="M 402.5 261  A 8.5 8.5 0 0 1 411 252.5 L 1291 252.5  A 8.5 8.5 0 0 1 1299.5 261 L 1299.5 421  A 8.5 8.5 0 0 1 1291 429.5 L 411 429.5  A 8.5 8.5 0 0 1 402.5 421 L 402.5 261  Z " stroke-width="1" stroke-dasharray="3,1" stroke="#d7d7d7" fill="none" stroke-dashoffset="0.5" />
  </g>
</svg>