<?xml version="1.0" encoding="utf-8"?>
<svg version="1.1" xmlns:xlink="http://www.w3.org/1999/xlink" width="12px" height="16px" xmlns="http://www.w3.org/2000/svg">
  <g transform="matrix(1 0 0 1 -3296 -13886 )">
    <path d="M 11.4375762941936 14.1249977111788  C 11.7484757437362 14.1249977111788  12 13.8734544353692  12 13.5624774932587  C 12 13.2515786762435  11.7484757437362 13.0000549317077  11.4375762941936 13.0000549317077  C 11.4375762941936 13.0000549317077  11.0000162760946 13.0000549317077  11.0000162760946 13.0000549317077  C 11.0000162760946 13.0000549317077  11.0000162760946 5.99998779295385  11.0000162760946 5.99998779295385  C 11.0000162760946 3.42812918472801  9.05940449024888 1.3109586315413  6.56252136237413 1.03127079012548  C 6.56252136237413 1.03127079012548  6.56252136237413 0.562520217920188  6.56252136237413 0.562520217920188  C 6.56252136237413 0.251543275809663  6.31097757479688 0  6 0  C 5.68910055045762 0  5.43747863762587 0.251543275809663  5.43747863762587 0.562520217920188  C 5.43747863762587 0.562520217920188  5.43747863762587 1.03127079012548  5.43747863762587 1.03127079012548  C 2.94061504106458 1.3109586315413  0.999983723905416 3.42812918472801  0.999983723905416 5.99998779295385  C 0.999983723905416 5.99998779295385  0.999983723905416 13.0000549317077  0.999983723905416 13.0000549317077  C 0.999983723905416 13.0000549317077  0.562521362374127 13.0000549317077  0.562521362374127 13.0000549317077  C 0.251543787577475 13.0000549317077  0 13.2515786762435  0 13.5624774932587  C 0 13.8734544353692  0.251543787577475 14.1249977111788  0.562521362374127 14.1249977111788  C 0.562521362374127 14.1249977111788  4.87505493181948 14.1249977111788  4.87505493181948 14.1249977111788  C 4.87505493181948 14.1249977111788  4.87505493181948 14.8750572205288  4.87505493181948 14.8750572205288  C 4.87505493181948 15.4969134483807  5.37812297566074 16  6 16  C 6.62187702433926 16  7.12504272474848 15.4969134483807  7.12504272474848 14.8750572205288  C 7.12504272474848 14.8750572205288  7.12504272474848 14.1249977111788  7.12504272474848 14.1249977111788  C 7.12504272474848 14.1249977111788  11.4375762941936 14.1249977111788  11.4375762941936 14.1249977111788  Z M 5.99994959690116 2  C 8.2096617700056 2  10 3.75432694984384  10 5.91949367907026  C 10 5.91949367907026  10 13  10 13  L 2 13  C 2 13  2 5.91949367907026  2 5.91949367907026  C 2 3.75432694984384  3.7903382299944 2  5.99994959690116 2  Z " fill-rule="nonzero" fill="#ffffff" stroke="none" transform="matrix(1 0 0 1 3296 13886 )" />
  </g>
</svg>