<?xml version="1.0" encoding="utf-8"?>
<svg version="1.1" xmlns:xlink="http://www.w3.org/1999/xlink" width="9px" height="6px" xmlns="http://www.w3.org/2000/svg">
  <g transform="matrix(1 0 0 1 -2278 -13892 )">
    <path d="M 8.80881556233033 0.112927901523088  C 8.9343170030092 0.215036209451216  9 0.362917207140229  9 0.513145522252878  C 9 0.625816758587365  8.9624668588624 0.739661653633668  8.88740057658719 0.834728009290891  C 8.88740057658719 0.834728009290891  4.88894813477173 5.80869362997373  4.88894813477173 5.80869362997373  C 4.79159654994607 5.92958047729094  4.6449827173773 5.99999999999999  4.48898559952413 5.99999999999999  C 4.33416139233151 5.99999999999999  4.18637464910219 5.92958047729094  4.09019597493708 5.80869362997373  C 4.09019597493708 5.80869362997373  0.112855925011519 0.855853866103606  0.112855925011519 0.855853866103606  C -0.0642535847315534 0.635206028281904  -0.0290662649150489 0.312449882532073  0.191440939268379 0.135227417047621  C 0.411948143451807 -0.0419950484368311  0.734498575103098 -0.00678528708230413  0.911608084846171 0.213862550739398  C 0.911608084846171 0.213862550739398  4.49015851018468 4.66907102079888  4.49015851018468 4.66907102079888  C 4.49015851018468 4.66907102079888  8.08864841675254 0.191563035214864  8.08864841675254 0.191563035214864  C 8.26575792649561 -0.0290848026068379  8.5883083581469 -0.0642945639613649  8.80881556233033 0.112927901523088  Z " fill-rule="nonzero" fill="#ffffff" stroke="none" fill-opacity="0.450980392156863" transform="matrix(1 0 0 1 2278 13892 )" />
  </g>
</svg>