<?xml version="1.0" encoding="utf-8"?>
<svg version="1.1" xmlns:xlink="http://www.w3.org/1999/xlink" width="48px" height="48px" xmlns="http://www.w3.org/2000/svg">
  <g transform="matrix(1 0 0 1 1841 -16531 )">
    <path d="M 47.9968939553721 44.1478352692714  C 47.9968939553721 44.1478352692714  47.9968939553721 20.9651531151003  47.9968939553721 20.9651531151003  C 47.9968939553721 20.882787750792  47.9968939553721 20.8004223864836  47.990486174646 20.7307286166843  C 48.0161172975504 20.4202745512144  47.990486174646 20.1224920802534  47.9071850252071 19.8373812038015  C 47.9071850252071 19.8373812038015  40.7048394891005 1.7233368532207  40.7048394891005 1.7233368532207  C 40.3844504527968 0.703273495248155  39.4296911246119 0  38.3467761819055 0  C 38.3467761819055 0  9.20418943972331 0  9.20418943972331 0  C 8.11486671629083 0  7.14729182665374 0.715945089757128  6.83971835180222 1.74868004223865  C 6.83971835180222 1.74868004223865  0.117956370151148 19.6282998944034  0.117956370151148 19.6282998944034  C 0.0346552207121817 19.9387539598733  -0.02301480582247 20.350580781415  0.0218396592600243 20.6610348468849  C 0.015431878533974 20.7624076029567  0.00902409780789526 20.8637803590285  0.00902409780789526 20.9651531151003  C 0.00902409780789526 20.9651531151003  0.00902409780789526 44.1478352692714  0.00902409780789526 44.1478352692714  C 0.00902409780789526 46.2703273495248  1.75834823602594 48  3.90495477926055 48  C 3.90495477926055 48  44.0945554931934 48  44.0945554931934 48  C 46.241162036428 48  47.990486174646 46.2703273495248  47.9968939553721 44.1478352692714  Z M 11.1070663811563 5  L 36.7516059957173 5  L 42 18  L 29.1199143468951 18  C 29.1199143468951 17.247096092925  29.1006423982869 18.2418162618796  29.1006423982869 18.2418162618796  C 29.0492505353319 21.0865892291447  27.0578158458244 23  24.1477516059957 23  C 22.7280513918629 23  21.507494646681 22.5501583949314  20.627408993576 21.6948257655755  C 19.7473233404711 20.8394931362196  19.2655246252677 19.6483632523759  19.2398286937901 18.2418162618796  C 19.2398286937901 18.2418162618796  19.220556745182 17.247096092925  19.220556745182 18  L 6 18  L 11.1070663811563 5  Z M 43 43  L 5 43  L 5 22  C 5 22  15.0426747311828 22  15.0426747311828 22  C 16.5940860215054 25.5911949685535  19.8948252688172 27.7106918238994  24.0063844086021 27.7106918238994  C 26.1579301075269 27.7106918238994  28.15625 27.1194968553459  29.7715053763441 26  C 31.1888440860215 25.0188679245283  32.2933467741935 23.6477987421384  33.0084005376344 22  C 33.0084005376344 22  43 22  43 22  L 43 43  Z " fill-rule="nonzero" fill="#00aaa6" stroke="none" transform="matrix(1 0 0 1 -1841 16531 )" />
  </g>
</svg>