<?xml version="1.0" encoding="utf-8"?>
<svg version="1.1" xmlns:xlink="http://www.w3.org/1999/xlink" width="28px" height="28px" xmlns="http://www.w3.org/2000/svg">
  <g transform="matrix(1 0 0 1 2828 -19399 )">
    <path d="M -2814 19400  C -2806.72 19400  -2801 19405.72  -2801 19413  C -2801 19420.28  -2806.72 19426  -2814 19426  C -2821.28 19426  -2827 19420.28  -2827 19413  C -2827 19405.72  -2821.28 19400  -2814 19400  Z " fill-rule="nonzero" fill="#ffffff" stroke="none" />
    <path d="M -2814 19400  C -2806.72 19400  -2801 19405.72  -2801 19413  C -2801 19420.28  -2806.72 19426  -2814 19426  C -2821.28 19426  -2827 19420.28  -2827 19413  C -2827 19405.72  -2821.28 19400  -2814 19400  Z " stroke-width="2" stroke="#00aaa6" fill="none" />
  </g>
</svg>