<?xml version="1.0" encoding="utf-8"?>
<svg version="1.1" xmlns:xlink="http://www.w3.org/1999/xlink" width="440px" height="32px" xmlns="http://www.w3.org/2000/svg">
  <g transform="matrix(1 0 0 1 2718 -17909 )">
    <path d="M -2717 17913  A 3 3 0 0 1 -2714 17910 L -2282 17910  A 3 3 0 0 1 -2279 17913 L -2279 17937  A 3 3 0 0 1 -2282 17940 L -2714 17940  A 3 3 0 0 1 -2717 17937 L -2717 17913  Z " fill-rule="nonzero" fill="#ffffff" stroke="none" />
    <path d="M -2717.5 17913  A 3.5 3.5 0 0 1 -2714 17909.5 L -2282 17909.5  A 3.5 3.5 0 0 1 -2278.5 17913 L -2278.5 17937  A 3.5 3.5 0 0 1 -2282 17940.5 L -2714 17940.5  A 3.5 3.5 0 0 1 -2717.5 17937 L -2717.5 17913  Z " stroke-width="1" stroke-dasharray="9,4" stroke="#d9d9d9" fill="none" stroke-dashoffset="0.5" />
  </g>
</svg>