<?xml version="1.0" encoding="utf-8"?>
<svg version="1.1" xmlns:xlink="http://www.w3.org/1999/xlink" width="1072px" height="32px" xmlns="http://www.w3.org/2000/svg">
  <g transform="matrix(1 0 0 1 3982 -20984 )">
    <path d="M -3981 20988  A 3 3 0 0 1 -3978 20985 L -2914 20985  A 3 3 0 0 1 -2911 20988 L -2911 21012  A 3 3 0 0 1 -2914 21015 L -3978 21015  A 3 3 0 0 1 -3981 21012 L -3981 20988  Z " fill-rule="nonzero" fill="#ffffff" stroke="none" />
    <path d="M -3981.5 20988  A 3.5 3.5 0 0 1 -3978 20984.5 L -2914 20984.5  A 3.5 3.5 0 0 1 -2910.5 20988 L -2910.5 21012  A 3.5 3.5 0 0 1 -2914 21015.5 L -3978 21015.5  A 3.5 3.5 0 0 1 -3981.5 21012 L -3981.5 20988  Z " stroke-width="1" stroke-dasharray="9,4" stroke="#d9d9d9" fill="none" stroke-dashoffset="0.5" />
  </g>
</svg>