<?xml version="1.0" encoding="utf-8"?>
<svg version="1.1" xmlns:xlink="http://www.w3.org/1999/xlink" width="1073px" height="282px" xmlns="http://www.w3.org/2000/svg">
  <g transform="matrix(1 0 0 1 3755 -20436 )">
    <path d="M 0.5 0  L 0.5 279.701078582434  C 0 280.428474576271  0.665587958607724 281  1.51269990592662 281.5  L 1070.48730009407 281.5  C 1071.33441204139 281  1072 280.428474576271  1072.5 279.701078582434  L 1072.5 0  L 0.5 0  Z " fill-rule="nonzero" fill="#ffffff" stroke="none" transform="matrix(1 0 0 1 -3755 20436 )" />
    <path d="M 0.5 0  L 0.5 279.701078582434  C 0 280.428474576271  0.665587958607724 281  1.51269990592662 281.5  L 1070.48730009407 281.5  C 1071.33441204139 281  1072 280.428474576271  1072.5 279.701078582434  L 1072.5 0  " stroke-width="1" stroke="#e9e9e9" fill="none" transform="matrix(1 0 0 1 -3755 20436 )" />
  </g>
</svg>