<?xml version="1.0" encoding="utf-8"?>
<svg version="1.1" xmlns:xlink="http://www.w3.org/1999/xlink" width="24px" height="24px" xmlns="http://www.w3.org/2000/svg">
  <g transform="matrix(1 0 0 1 3822 -18782 )">
    <path d="M -3810 18782.5  C -3803.56 18782.5  -3798.5 18787.56  -3798.5 18794  C -3798.5 18800.44  -3803.56 18805.5  -3810 18805.5  C -3816.44 18805.5  -3821.5 18800.44  -3821.5 18794  C -3821.5 18787.56  -3816.44 18782.5  -3810 18782.5  Z " fill-rule="nonzero" fill="#f3f3f3" stroke="none" />
    <path d="M -3810 18782.5  C -3803.56 18782.5  -3798.5 18787.56  -3798.5 18794  C -3798.5 18800.44  -3803.56 18805.5  -3810 18805.5  C -3816.44 18805.5  -3821.5 18800.44  -3821.5 18794  C -3821.5 18787.56  -3816.44 18782.5  -3810 18782.5  Z " stroke-width="1" stroke="#000000" fill="none" stroke-opacity="0.0470588235294118" />
  </g>
</svg>