<?xml version="1.0" encoding="utf-8"?>
<svg version="1.1" xmlns:xlink="http://www.w3.org/1999/xlink" width="32px" height="32px" xmlns="http://www.w3.org/2000/svg">
  <g transform="matrix(1 0 0 1 2950 -18465 )">
    <path d="M -2949 18469  A 3 3 0 0 1 -2946 18466 L -2922 18466  A 3 3 0 0 1 -2919 18469 L -2919 18493  A 3 3 0 0 1 -2922 18496 L -2946 18496  A 3 3 0 0 1 -2949 18493 L -2949 18469  Z " fill-rule="nonzero" fill="#f6f6f6" stroke="none" />
    <path d="M -2949.5 18469  A 3.5 3.5 0 0 1 -2946 18465.5 L -2922 18465.5  A 3.5 3.5 0 0 1 -2918.5 18469 L -2918.5 18493  A 3.5 3.5 0 0 1 -2922 18496.5 L -2946 18496.5  A 3.5 3.5 0 0 1 -2949.5 18493 L -2949.5 18469  Z " stroke-width="1" stroke="#000000" fill="none" stroke-opacity="0.0470588235294118" />
  </g>
</svg>