<?xml version="1.0" encoding="utf-8"?>
<svg version="1.1" xmlns:xlink="http://www.w3.org/1999/xlink" width="40px" height="40px" xmlns="http://www.w3.org/2000/svg">
  <g transform="matrix(1 0 0 1 2950 -18415 )">
    <path d="M -2949 18419  A 3 3 0 0 1 -2946 18416 L -2914 18416  A 3 3 0 0 1 -2911 18419 L -2911 18451  A 3 3 0 0 1 -2914 18454 L -2946 18454  A 3 3 0 0 1 -2949 18451 L -2949 18419  Z " fill-rule="nonzero" fill="#f6f6f6" stroke="none" />
    <path d="M -2949.5 18419  A 3.5 3.5 0 0 1 -2946 18415.5 L -2914 18415.5  A 3.5 3.5 0 0 1 -2910.5 18419 L -2910.5 18451  A 3.5 3.5 0 0 1 -2914 18454.5 L -2946 18454.5  A 3.5 3.5 0 0 1 -2949.5 18451 L -2949.5 18419  Z " stroke-width="1" stroke="#000000" fill="none" stroke-opacity="0.0470588235294118" />
  </g>
</svg>