<?xml version="1.0" encoding="utf-8"?>
<svg version="1.1" xmlns:xlink="http://www.w3.org/1999/xlink" width="24px" height="24px" xmlns="http://www.w3.org/2000/svg">
  <g transform="matrix(1 0 0 1 2950 -18507 )">
    <path d="M -2949 18511  A 3 3 0 0 1 -2946 18508 L -2930 18508  A 3 3 0 0 1 -2927 18511 L -2927 18527  A 3 3 0 0 1 -2930 18530 L -2946 18530  A 3 3 0 0 1 -2949 18527 L -2949 18511  Z " fill-rule="nonzero" fill="#f6f6f6" stroke="none" />
    <path d="M -2949.5 18511  A 3.5 3.5 0 0 1 -2946 18507.5 L -2930 18507.5  A 3.5 3.5 0 0 1 -2926.5 18511 L -2926.5 18527  A 3.5 3.5 0 0 1 -2930 18530.5 L -2946 18530.5  A 3.5 3.5 0 0 1 -2949.5 18527 L -2949.5 18511  Z " stroke-width="1" stroke="#000000" fill="none" stroke-opacity="0.0470588235294118" />
  </g>
</svg>