<?xml version="1.0" encoding="utf-8"?>
<svg version="1.1" xmlns:xlink="http://www.w3.org/1999/xlink" width="40px" height="40px" xmlns="http://www.w3.org/2000/svg">
  <g transform="matrix(1 0 0 1 3830 -18670 )">
    <path d="M -3810 18670.5  C -3799.08 18670.5  -3790.5 18679.08  -3790.5 18690  C -3790.5 18700.92  -3799.08 18709.5  -3810 18709.5  C -3820.92 18709.5  -3829.5 18700.92  -3829.5 18690  C -3829.5 18679.08  -3820.92 18670.5  -3810 18670.5  Z " fill-rule="nonzero" fill="#f3f3f3" stroke="none" />
    <path d="M -3810 18670.5  C -3799.08 18670.5  -3790.5 18679.08  -3790.5 18690  C -3790.5 18700.92  -3799.08 18709.5  -3810 18709.5  C -3820.92 18709.5  -3829.5 18700.92  -3829.5 18690  C -3829.5 18679.08  -3820.92 18670.5  -3810 18670.5  Z " stroke-width="1" stroke="#000000" fill="none" stroke-opacity="0.0470588235294118" />
  </g>
</svg>