<?xml version="1.0" encoding="utf-8"?>
<svg version="1.1" xmlns:xlink="http://www.w3.org/1999/xlink" width="32px" height="32px" xmlns="http://www.w3.org/2000/svg">
  <g transform="matrix(1 0 0 1 3826 -18730 )">
    <path d="M -3810 18730.5  C -3801.32 18730.5  -3794.5 18737.32  -3794.5 18746  C -3794.5 18754.68  -3801.32 18761.5  -3810 18761.5  C -3818.68 18761.5  -3825.5 18754.68  -3825.5 18746  C -3825.5 18737.32  -3818.68 18730.5  -3810 18730.5  Z " fill-rule="nonzero" fill="#f3f3f3" stroke="none" />
    <path d="M -3810 18730.5  C -3801.32 18730.5  -3794.5 18737.32  -3794.5 18746  C -3794.5 18754.68  -3801.32 18761.5  -3810 18761.5  C -3818.68 18761.5  -3825.5 18754.68  -3825.5 18746  C -3825.5 18737.32  -3818.68 18730.5  -3810 18730.5  Z " stroke-width="1" stroke="#000000" fill="none" stroke-opacity="0.0470588235294118" />
  </g>
</svg>