<?xml version="1.0" encoding="utf-8"?>
<svg version="1.1" xmlns:xlink="http://www.w3.org/1999/xlink" width="10px" height="10px" xmlns="http://www.w3.org/2000/svg">
  <g transform="matrix(1 0 0 1 4051 -18862 )">
    <path d="M -4046 18863  C -4043.76 18863  -4042 18864.76  -4042 18867  C -4042 18869.24  -4043.76 18871  -4046 18871  C -4048.24 18871  -4050 18869.24  -4050 18867  C -4050 18864.76  -4048.24 18863  -4046 18863  Z " fill-rule="nonzero" fill="#ffffff" stroke="none" />
    <path d="M -4046 18863  C -4043.76 18863  -4042 18864.76  -4042 18867  C -4042 18869.24  -4043.76 18871  -4046 18871  C -4048.24 18871  -4050 18869.24  -4050 18867  C -4050 18864.76  -4048.24 18863  -4046 18863  Z " stroke-width="2" stroke="#52c41a" fill="none" />
  </g>
</svg>