<?xml version="1.0" encoding="utf-8"?>
<svg version="1.1" xmlns:xlink="http://www.w3.org/1999/xlink" width="10px" height="10px" xmlns="http://www.w3.org/2000/svg">
  <g transform="matrix(1 0 0 1 4051 -18945 )">
    <path d="M -4046 18946  C -4043.76 18946  -4042 18947.76  -4042 18950  C -4042 18952.24  -4043.76 18954  -4046 18954  C -4048.24 18954  -4050 18952.24  -4050 18950  C -4050 18947.76  -4048.24 18946  -4046 18946  Z " fill-rule="nonzero" fill="#ffffff" stroke="none" />
    <path d="M -4046 18946  C -4043.76 18946  -4042 18947.76  -4042 18950  C -4042 18952.24  -4043.76 18954  -4046 18954  C -4048.24 18954  -4050 18952.24  -4050 18950  C -4050 18947.76  -4048.24 18946  -4046 18946  Z " stroke-width="2" stroke="#f5222d" fill="none" />
  </g>
</svg>