<?xml version="1.0" encoding="utf-8"?>
<svg version="1.1" xmlns:xlink="http://www.w3.org/1999/xlink" width="10px" height="10px" xmlns="http://www.w3.org/2000/svg">
  <g transform="matrix(1 0 0 1 4051 -18674 )">
    <path d="M -4046 18675  C -4043.76 18675  -4042 18676.76  -4042 18679  C -4042 18681.24  -4043.76 18683  -4046 18683  C -4048.24 18683  -4050 18681.24  -4050 18679  C -4050 18676.76  -4048.24 18675  -4046 18675  Z " fill-rule="nonzero" fill="#ffffff" stroke="none" />
    <path d="M -4046 18675  C -4043.76 18675  -4042 18676.76  -4042 18679  C -4042 18681.24  -4043.76 18683  -4046 18683  C -4048.24 18683  -4050 18681.24  -4050 18679  C -4050 18676.76  -4048.24 18675  -4046 18675  Z " stroke-width="2" stroke="#00aaa6" fill="none" />
  </g>
</svg>