<?xml version="1.0" encoding="utf-8"?>
<svg version="1.1" xmlns:xlink="http://www.w3.org/1999/xlink" width="10px" height="10px" xmlns="http://www.w3.org/2000/svg">
  <g transform="matrix(1 0 0 1 4051 -18799 )">
    <path d="M -4046 18800  C -4043.76 18800  -4042 18801.76  -4042 18804  C -4042 18806.24  -4043.76 18808  -4046 18808  C -4048.24 18808  -4050 18806.24  -4050 18804  C -4050 18801.76  -4048.24 18800  -4046 18800  Z " fill-rule="nonzero" fill="#ffffff" stroke="none" />
    <path d="M -4046 18800  C -4043.76 18800  -4042 18801.76  -4042 18804  C -4042 18806.24  -4043.76 18808  -4046 18808  C -4048.24 18808  -4050 18806.24  -4050 18804  C -4050 18801.76  -4048.24 18800  -4046 18800  Z " stroke-width="2" stroke="#d9d9d9" fill="none" />
  </g>
</svg>