<?xml version="1.0" encoding="utf-8"?>
<svg version="1.1" xmlns:xlink="http://www.w3.org/1999/xlink" width="9px" height="9px" xmlns="http://www.w3.org/2000/svg">
  <g transform="matrix(1 0 0 1 -442 -902 )">
    <path d="M 8.82408142089844 8.13124694824219  L 5.18838500976563 4.49419555664062  L 8.82409057617187 0.857144165039062  C 9.00746061169275 0.67158888812393  9.00746061169275 0.373055276915132  8.82409057617188 0.1875  L 8.80400390625 0.167413330078125  C 8.61854858159782 -0.0161998862031397  8.31981506586312 -0.0161998862031388  8.13435974121094 0.167413330078125  L 4.49909362792969 3.80938110351563  L 0.863827514648438 0.167413330078125  C 0.678372189996257 -0.0161998862031394  0.379638674261557 -0.0161998862031394  0.194183349609376 0.167413330078125  L 0.174536132812501 0.1875  C 0.0842114274087046 0.275483412702841  0.0332660139039576 0.396228334390923  0.0332660139039576 0.522322082519531  C 0.0332660139039576 0.64841583064814  0.0842114274087046 0.769160752336222  0.174536132812501 0.857144165039063  L 3.80981140136719 4.49419555664062  L 0.1745361328125 8.13080749511719  C -0.00882787115393301 8.31636168283577  -0.00882787115393301 8.61488831716423  0.1745361328125 8.80044250488281  L 0.194183349609375 8.82053833007813  C 0.379638674261556 9.00415154635939  0.678372189996256 9.00415154635939  0.863827514648437 8.82053833007813  L 4.49908447265625 5.18392639160156  L 8.1343505859375 8.82053833007812  C 8.31980591058968 9.00415154635939  8.61853942632438 9.00415154635939  8.80399475097656 8.82053833007813  L 8.82408142089844 8.80089111328125  C 9.00745145641931 8.61533583636612  9.00745145641931 8.31680222515732  8.82408142089844 8.13124694824219  Z " fill-rule="nonzero" fill="#333333" stroke="none" transform="matrix(1 0 0 1 442 902 )" />
  </g>
</svg>