<?xml version="1.0" encoding="utf-8"?>
<svg version="1.1" xmlns:xlink="http://www.w3.org/1999/xlink" width="33px" height="18px" xmlns="http://www.w3.org/2000/svg">
  <g transform="matrix(1 0 0 1 -402 -612 )">
    <path d="M 9.06591796875 0  L 23.93408203125 0  C 28.8892822265625 0.02783203125  32.90625 4.0447998046875  32.90625 9  C 32.90625 13.9552001953125  28.8892822265625 17.97216796875  23.93408203125 18  L 9.06591796875 18  C 4.1107177734375 17.97216796875  0.09375 13.9552001953125  0.09375 9  C 0.09375 4.0447998046875  4.1107177734375 0.02783203125  9.06591796875 0  Z M 29.244140625 9  C 29.244140625 6.06734619140625  26.8667358398438 3.68994140625  23.93408203125 3.68994140625  C 21.0014282226563 3.68994140625  18.6240234375 6.06734619140625  18.6240234375 9  C 18.6240234375 11.9326538085938  21.0014282226563 14.31005859375  23.93408203125 14.31005859375  C 26.8667358398438 14.31005859375  29.244140625 11.9326538085938  29.244140625 9  Z " fill-rule="nonzero" fill="#222222" stroke="none" transform="matrix(1 0 0 1 402 612 )" />
  </g>
</svg>