<?xml version="1.0" encoding="utf-8"?>
<svg version="1.1" xmlns:xlink="http://www.w3.org/1999/xlink" width="60px" height="24px" xmlns="http://www.w3.org/2000/svg">
  <g transform="matrix(1 0 0 1 -525 -1089 )">
    <path d="M 526 1091  A 1 1 0 0 1 527 1090 L 583 1090  A 1 1 0 0 1 584 1091 L 584 1111  A 1 1 0 0 1 583 1112 L 527 1112  A 1 1 0 0 1 526 1111 L 526 1091  Z " fill-rule="nonzero" fill="#f5f5f5" stroke="none" fill-opacity="0" />
    <path d="M 525.5 1091  A 1.5 1.5 0 0 1 527 1089.5 L 583 1089.5  A 1.5 1.5 0 0 1 584.5 1091 L 584.5 1111  A 1.5 1.5 0 0 1 583 1112.5 L 527 1112.5  A 1.5 1.5 0 0 1 525.5 1111 L 525.5 1091  Z " stroke-width="1" stroke-dasharray="3,1" stroke="#d9d9d9" fill="none" stroke-dashoffset="0.5" />
  </g>
</svg>