<?xml version="1.0" encoding="utf-8"?>
<svg version="1.1" xmlns:xlink="http://www.w3.org/1999/xlink" width="24px" height="24px" xmlns="http://www.w3.org/2000/svg">
  <g transform="matrix(1 0 0 1 -1433 -13176 )">
    <path d="M 1445 13176  C 1451.72 13176  1457 13181.28  1457 13188  C 1457 13194.72  1451.72 13200  1445 13200  C 1438.28 13200  1433 13194.72  1433 13188  C 1433 13181.28  1438.28 13176  1445 13176  Z " fill-rule="nonzero" fill="#ffffff" stroke="none" />
    <path d="M 1445 13176.5  C 1451.44 13176.5  1456.5 13181.56  1456.5 13188  C 1456.5 13194.44  1451.44 13199.5  1445 13199.5  C 1438.56 13199.5  1433.5 13194.44  1433.5 13188  C 1433.5 13181.56  1438.56 13176.5  1445 13176.5  Z " stroke-width="1" stroke="#cccccc" fill="none" />
  </g>
</svg>