<?xml version="1.0" encoding="utf-8"?>
<svg version="1.1" xmlns:xlink="http://www.w3.org/1999/xlink" width="32px" height="32px" xmlns="http://www.w3.org/2000/svg">
  <g transform="matrix(1 0 0 1 -1577 -13053 )">
    <path d="M 1593 13053  C 1601.96 13053  1609 13060.04  1609 13069  C 1609 13077.96  1601.96 13085  1593 13085  C 1584.04 13085  1577 13077.96  1577 13069  C 1577 13060.04  1584.04 13053  1593 13053  Z " fill-rule="nonzero" fill="#ffffff" stroke="none" />
    <path d="M 1593 13053.5  C 1601.68 13053.5  1608.5 13060.32  1608.5 13069  C 1608.5 13077.68  1601.68 13084.5  1593 13084.5  C 1584.32 13084.5  1577.5 13077.68  1577.5 13069  C 1577.5 13060.32  1584.32 13053.5  1593 13053.5  Z " stroke-width="1" stroke="#cccccc" fill="none" />
  </g>
</svg>