<?xml version="1.0" encoding="utf-8"?>
<svg version="1.1" xmlns:xlink="http://www.w3.org/1999/xlink" width="22px" height="22px" xmlns="http://www.w3.org/2000/svg">
  <defs>
    <filter x="1179px" y="13500px" width="22px" height="22px" filterUnits="userSpaceOnUse" id="filter52">
      <feOffset dx="0" dy="0" in="SourceAlpha" result="shadowOffsetInner" />
      <feGaussianBlur stdDeviation="2" in="shadowOffsetInner" result="shadowGaussian" />
      <feComposite in2="shadowGaussian" operator="atop" in="SourceAlpha" result="shadowComposite" />
      <feColorMatrix type="matrix" values="0 0 0 0 0  0 0 0 0 0  0 0 0 0 0  0 0 0 0.149019607843137 0  " in="shadowComposite" />
    </filter>
    <g id="widget53">
      <path d="M 1190 13505  C 1193.36 13505  1196 13507.64  1196 13511  C 1196 13514.36  1193.36 13517  1190 13517  C 1186.64 13517  1184 13514.36  1184 13511  C 1184 13507.64  1186.64 13505  1190 13505  Z " fill-rule="nonzero" fill="#00aaa6" stroke="none" />
      <path d="M 1190 13505  C 1193.36 13505  1196 13507.64  1196 13511  C 1196 13514.36  1193.36 13517  1190 13517  C 1186.64 13517  1184 13514.36  1184 13511  C 1184 13507.64  1186.64 13505  1190 13505  Z " stroke-width="2" stroke="#ffffff" fill="none" />
    </g>
  </defs>
  <g transform="matrix(1 0 0 1 -1179 -13500 )">
    <use xlink:href="#widget53" filter="url(#filter52)" />
    <use xlink:href="#widget53" />
  </g>
</svg>