<?xml version="1.0" encoding="utf-8"?>
<svg version="1.1" xmlns:xlink="http://www.w3.org/1999/xlink" width="438px" height="192px" xmlns="http://www.w3.org/2000/svg">
  <g transform="matrix(1 0 0 1 2038 -16490 )">
    <path d="M -2037 16496  A 5 5 0 0 1 -2032 16491 L -1606 16491  A 5 5 0 0 1 -1601 16496 L -1601 16676  A 5 5 0 0 1 -1606 16681 L -2032 16681  A 5 5 0 0 1 -2037 16676 L -2037 16496  Z " fill-rule="nonzero" fill="#000000" stroke="none" fill-opacity="0.0196078431372549" />
    <path d="M -2037.5 16496  A 5.5 5.5 0 0 1 -2032 16490.5 L -1606 16490.5  A 5.5 5.5 0 0 1 -1600.5 16496 L -1600.5 16676  A 5.5 5.5 0 0 1 -1606 16681.5 L -2032 16681.5  A 5.5 5.5 0 0 1 -2037.5 16676 L -2037.5 16496  Z " stroke-width="1" stroke-dasharray="9,4" stroke="#000000" fill="none" stroke-opacity="0.149019607843137" stroke-dashoffset="0.5" />
  </g>
</svg>