<?xml version="1.0" encoding="utf-8"?>
<svg version="1.1" xmlns:xlink="http://www.w3.org/1999/xlink" width="14px" height="14px" xmlns="http://www.w3.org/2000/svg">
  <g transform="matrix(1 0 0 1 2037 -16065 )">
    <path d="M -2030 16065  C -2026.08 16065  -2023 16068.08  -2023 16072  C -2023 16075.92  -2026.08 16079  -2030 16079  C -2033.92 16079  -2037 16075.92  -2037 16072  C -2037 16068.08  -2033.92 16065  -2030 16065  Z " fill-rule="nonzero" fill="#ffffff" stroke="none" fill-opacity="0" />
    <path d="M -2030 16065.5  C -2026.36 16065.5  -2023.5 16068.36  -2023.5 16072  C -2023.5 16075.64  -2026.36 16078.5  -2030 16078.5  C -2033.64 16078.5  -2036.5 16075.64  -2036.5 16072  C -2036.5 16068.36  -2033.64 16065.5  -2030 16065.5  Z " stroke-width="1" stroke="#d9d9d9" fill="none" />
  </g>
</svg>