<?xml version="1.0" encoding="utf-8"?>
<svg version="1.1" xmlns:xlink="http://www.w3.org/1999/xlink" width="14px" height="14px" xmlns="http://www.w3.org/2000/svg">
  <g transform="matrix(1 0 0 1 1948 -16065 )">
    <path d="M -1941 16065  C -1937.08 16065  -1934 16068.08  -1934 16072  C -1934 16075.92  -1937.08 16079  -1941 16079  C -1944.92 16079  -1948 16075.92  -1948 16072  C -1948 16068.08  -1944.92 16065  -1941 16065  Z " fill-rule="nonzero" fill="#ffffff" stroke="none" fill-opacity="0" />
    <path d="M -1941 16065.5  C -1937.36 16065.5  -1934.5 16068.36  -1934.5 16072  C -1934.5 16075.64  -1937.36 16078.5  -1941 16078.5  C -1944.64 16078.5  -1947.5 16075.64  -1947.5 16072  C -1947.5 16068.36  -1944.64 16065.5  -1941 16065.5  Z " stroke-width="1" stroke="#00aaa6" fill="none" />
  </g>
</svg>