<?xml version="1.0" encoding="utf-8"?>
<svg version="1.1" xmlns:xlink="http://www.w3.org/1999/xlink" width="104px" height="104px" xmlns="http://www.w3.org/2000/svg">
  <g transform="matrix(1 0 0 1 1918 -16364 )">
    <path d="M -1917 16368  A 3 3 0 0 1 -1914 16365 L -1818 16365  A 3 3 0 0 1 -1815 16368 L -1815 16464  A 3 3 0 0 1 -1818 16467 L -1914 16467  A 3 3 0 0 1 -1917 16464 L -1917 16368  Z " fill-rule="nonzero" fill="#ffffff" stroke="none" />
    <path d="M -1917.5 16368  A 3.5 3.5 0 0 1 -1914 16364.5 L -1818 16364.5  A 3.5 3.5 0 0 1 -1814.5 16368 L -1814.5 16464  A 3.5 3.5 0 0 1 -1818 16467.5 L -1914 16467.5  A 3.5 3.5 0 0 1 -1917.5 16464 L -1917.5 16368  Z " stroke-width="1" stroke-dasharray="9,4" stroke="#d9d9d9" fill="none" stroke-dashoffset="0.5" />
  </g>
</svg>