<?xml version="1.0" encoding="utf-8"?>
<svg version="1.1" xmlns:xlink="http://www.w3.org/1999/xlink" width="28px" height="28px" xmlns="http://www.w3.org/2000/svg">
  <g transform="matrix(1 0 0 1 2828 -19832 )">
    <path d="M -2814 19833  C -2806.72 19833  -2801 19838.72  -2801 19846  C -2801 19853.28  -2806.72 19859  -2814 19859  C -2821.28 19859  -2827 19853.28  -2827 19846  C -2827 19838.72  -2821.28 19833  -2814 19833  Z " fill-rule="nonzero" fill="#ffffff" stroke="none" fill-opacity="0" />
    <path d="M -2814 19833  C -2806.72 19833  -2801 19838.72  -2801 19846  C -2801 19853.28  -2806.72 19859  -2814 19859  C -2821.28 19859  -2827 19853.28  -2827 19846  C -2827 19838.72  -2821.28 19833  -2814 19833  Z " stroke-width="2" stroke="#cccccc" fill="none" />
  </g>
</svg>