<?xml version="1.0" encoding="utf-8"?>
<svg version="1.1" xmlns:xlink="http://www.w3.org/1999/xlink" width="28px" height="28px" xmlns="http://www.w3.org/2000/svg">
  <g transform="matrix(1 0 0 1 2828 -19516 )">
    <path d="M -2814 19517  C -2806.72 19517  -2801 19522.72  -2801 19530  C -2801 19537.28  -2806.72 19543  -2814 19543  C -2821.28 19543  -2827 19537.28  -2827 19530  C -2827 19522.72  -2821.28 19517  -2814 19517  Z " fill-rule="nonzero" fill="#00aaa6" stroke="none" />
    <path d="M -2814 19517  C -2806.72 19517  -2801 19522.72  -2801 19530  C -2801 19537.28  -2806.72 19543  -2814 19543  C -2821.28 19543  -2827 19537.28  -2827 19530  C -2827 19522.72  -2821.28 19517  -2814 19517  Z " stroke-width="2" stroke="#00aaa6" fill="none" />
  </g>
</svg>