<?xml version="1.0" encoding="utf-8"?>
<svg version="1.1" xmlns:xlink="http://www.w3.org/1999/xlink" width="14px" height="9px" xmlns="http://www.w3.org/2000/svg">
  <g transform="matrix(1 0 0 1 -3338 -13890 )">
    <path d="M 13.9112537836429 2  C 13.9112537836429 2  13.9852687103457 0.858119658119655  13.9976045314629 0.666666666666664  C 14.0222761736973 0.222222222222221  13.8588265438952 0  13.3931492967235 0  L 11.1356940322885 0  L 11 2  C 11 2  13.9112537836429 2  13.9112537836429 2  Z M 9.32901043135053 9  L 10 0  L 7.29066817028479 0  L 7.05666760642794 3.1456026058632  L 3.16041725401737 3.1456026058632  C 3.16041725401737 3.1456026058632  3.35212855934583 0.574592833876224  3.35212855934583 0.574592833876224  C 3.3577671271496 0.0205211726384427  2.90668170284744 0  2.68395827459835 0  C 2.68395827459835 0  0.673808852551474 0  0.673808852551474 0  L 0 9  L 2.72342824922475 9  L 3.01945305892309 5.02182410423453  L 6.91288412743165 5.02182410423453  L 6.61685931773332 9  L 9.32901043135053 9  Z M 13.5376344086021 8  L 14 2  L 11.4623655913979 2  L 11 8  L 13.5376344086021 8  Z " fill-rule="nonzero" fill="#bfc3d2" stroke="none" transform="matrix(1 0 0 1 3338 13890 )" />
  </g>
</svg>