<?xml version="1.0" encoding="utf-8"?>
<svg version="1.1" xmlns:xlink="http://www.w3.org/1999/xlink" width="65px" height="61px" xmlns="http://www.w3.org/2000/svg">
  <g transform="matrix(1 0 0 1 -1166 -1043 )">
    <path d="M 15.5513788479478 6.036521875  L 15.5466417910448 6.036521875  C 16.0195980475328 5.56339366128176  16.6598492189052 5.29841289037618  17.3268277751866 6  L 47.6731722248134 6  C 48.3376865671642 5.29975625  48.9828737173507 5.5632  49.4533582089552 6.036521875  L 56.6227990904851 14  L 8.37227437033582 14  L 15.5513788479478 6.036521875  Z M 4.81692368236941 18.3244  L 4.81682894123134 19  L 60.1831710587687 19  L 55.1481532765858 53.4116  C 55.1454945303225 54.8065991053457  54.0220654328507 55.9368033444516  52.6354288129664 56  L 12.3646659281716 56  C 10.9761427488603 55.9394806977286  9.84977457758945 54.8084944694511  9.8471096665112 53.4116  L 4.81692368236941 18.3244  Z M 17.3268277751866 1  L 17.3268277751866 0.239139062499998  C 15.3235264109142 0.239139062499998  13.4026498367537 1.039478125  11.9910068796642 2.4644  L 1.46488747667911 13.039321875  C 0.400060535410452 14.1117373620611  -0.108958205458252 15.6210601494553  0.0873513292910489 17.1239390625  L 4.81190240205224 53.4017828125  C 4.81190240205224 57.598678125  8.19292939598881 61  12.3597393889925 61  L 52.6305970149254 61  C 56.8022388059702 61  60.1783392607276 57.598678125  60.1783392607276 53.4067390625  L 64.9029850746269 17.1239390625  C 65.0980221247879 15.6202622975638  64.587141711192 14.1108176388349  63.5205223880597 13.039321875  L 53.0040665811567 2.4595390625  C 51.5890967109209 1.0353746995273  49.669779903853 0.234939152479708  47.6682456856343 1  L 17.3268277751866 1  Z M 39.7372755363806 22.8628  L 39.7372755363806 22.8676609375  C 39.3399585077103 22.4374801019815  38.7783181098503 22.1994057332436  38.1947950676306 23  L 26.8100367304104 23  C 26.2248448911671 22.1979994964556  25.6611666411166 22.4361915593743  25.2627244636194 22.8676609375  C 24.8599515479633 23.2555989175608  24.6365980607507 23.7951841404243  24.6466228428172 24.3560609375  L 24.6466228428172 28.118521875  C 24.6466228428172 28.704121875  24.8503162896455 29.197078125  25.2627244636194 29.606921875  C 25.6730136754839 30.0164438639524  26.2323168860833 30.2387306074786  26.8100367304104 30.221878125  L 29.0171262826493 30.221878125  C 29.5793094126875 30.2316289067029  30.120950560129 30.0094088053402  30.5160258278918 29.606921875  C 30.9319175639294 29.2245397369251  31.1709117801649 28.6853122031466  31.1757083722015 28.118521875  L 31.1757083722015 27.1572  L 33.8242916277985 27.1572  L 33.8242916277985 31.4467390625  L 30.1183025303172 35.0335390625  C 29.7002887853647 35.4292482468108  29.4751998328213 35.9890789352456  29.5022009095149 36.565878125  L 29.5022009095149 38.7520609375  C 29.5022009095149 39.366921875  29.7058943563433 39.8744609375  30.1183025303172 40.2844  C 30.5145583719118 40.6880865341352  31.0581974466443 40.9103751980277  31.6220338736007 40.8992609375  L 33.8242916277985 40.8992609375  C 33.8404895691817 40.8996355199371  33.8566912544889 40.8998228297055  33.8728934747029 40.8998228297055  C 35.0409240404981 40.8998228297055  35.9877998996097 39.9472365807975  35.9877998996097 38.7721618922055  C 35.9877998996097 38.765461461835  35.9877684378527 38.7587610688431  35.9877055153918 38.7520609375  L 35.9877055153918 36.785478125  L 39.7372755363806 33.149878125  C 40.1388042801046 32.7630956642507  40.3620487126048 32.2255352603867  40.3533771571829 31.6663390625  L 40.3533771571829 24.3512  C 40.3634019392493 23.7903232029243  40.1400484520368 23.2507379800608  39.7372755363806 22.8628  Z M 35.9440298507463 45.5352609375  C 35.9497963076445 44.9651829112062  35.7069288701497 44.4212008314689  35.2795155083955 44.0468609375  C 34.8824447022545 43.6449573923076  34.3389086260006 43.4244678693647  33.7757841651119 43.4368609375  L 31.6172020755597 43.4368609375  C 31.0557432933264 43.4258055473696  30.5142067311045 43.6461920996265  30.1183025303172 44.0468609375  C 29.715529614661 44.4347989175608  29.4921761274485 44.9743841404243  29.5022009095149 45.5352609375  L 29.5022009095149 47.7215390625  C 29.5022009095149 48.3071390625  29.7058943563433 48.8048609375  30.1183025303172 49.2099390625  C 30.5020125117572 49.636925680085  31.0499284338789 49.8769732198972  31.6220338736007 49.8687390625  L 33.780615963153 49.8687390625  C 34.3527214028748 49.8769732198972  34.9006373249965 49.636925680085  35.2843473064366 49.2099390625  C 35.7099659041827 48.8346932813271  35.9510106135034 48.2908393496934  35.9440298507463 47.7215390625  L 35.9440298507463 45.5352609375  Z " fill-rule="nonzero" fill="#ffffff" stroke="none" transform="matrix(1 0 0 1 1166 1043 )" />
  </g>
</svg>