<?xml version="1.0" encoding="utf-8"?>
<svg version="1.1" xmlns:xlink="http://www.w3.org/1999/xlink" width="94px" height="124px" xmlns="http://www.w3.org/2000/svg">
  <g transform="matrix(1 0 0 1 -1026 -204 )">
    <path d="M 1073 327.043851064182  C 1054.4 296.411600654881  1026.5 278.032250409301  1026.5 247.4  C 1026.5 231.465714285714  1035.8 204.5  1073 204.5  C 1110.2 204.5  1119.5 231.465714285714  1119.5 247.4  C 1119.5 278.032250409301  1091.6 296.411600654881  1073 327.043851064182  Z " fill-rule="nonzero" fill="#009dd9" stroke="none" />
    <path d="M 1073 328  C 1054.2 297  1026 278.4  1026 247.4  C 1026 231.28  1035.4 204  1073 204  C 1110.6 204  1120 231.28  1120 247.4  C 1120 278.4  1091.8 297  1073 328  Z M 1073 326.087702128364  C 1091.4 295.823201309762  1119 277.664500818601  1119 247.4  C 1119 231.651428571429  1109.8 205  1073 205  C 1036.2 205  1027 231.651428571429  1027 247.4  C 1027 277.664500818601  1054.6 295.823201309762  1073 326.087702128364  Z " fill-rule="nonzero" fill="#ffffff" stroke="none" />
  </g>
</svg>