<?xml version="1.0" encoding="utf-8"?>
<svg version="1.1" xmlns:xlink="http://www.w3.org/1999/xlink" width="12px" height="12px" xmlns="http://www.w3.org/2000/svg">
  <g transform="matrix(1 0 0 1 -466 -1420 )">
    <path d="M 0.33333332890625 6  C 0.33333332890625 2.87044167109375  2.87044167109375 0.33333332890625  6 0.33333332890625  C 9.12955832890625 0.33333332890625  11.6666666710937 2.8704416578125  11.6666666710937 6  C 11.6666666710937 9.1295583421875  9.12955832890625 11.6666666710937  6 11.6666666710937  C 2.87044167109375 11.6666666710937  0.33333332890625 9.12955832890625  0.33333332890625 6  Z M 6 5.425825  L 4.85150832890625 4.27733332890625  C 4.77518305867554 4.19974665528859  4.67090380379682 4.15605129853599  4.56206796962974 4.15605129853599  C 4.33783115400759 4.15605129853599  4.15605129853599 4.33783115400759  4.15605129853599 4.56206796962974  C 4.15605129853599 4.67090380379681  4.19974665528859 4.77518305867554  4.27733332890625 4.85150832890625  L 5.425825 6  L 4.27733332890625 7.14849167109375  C 4.19974665528856 7.22481694132447  4.15605129853594 7.3290961962032  4.15605129853594 7.43793203037031  C 4.15605129853594 7.66216884599245  4.33783115400755 7.84394870146405  4.56206796962969 7.84394870146405  C 4.67090380379679 7.84394870146405  4.77518305867553 7.80025334471143  4.85150832890625 7.72266667109375  L 6 6.574175  L 7.14849167109375 7.72266667109375  C 7.22481694132447 7.80025334471143  7.3290961962032 7.84394870146405  7.43793203037031 7.84394870146405  C 7.66216884599245 7.84394870146405  7.84394870146405 7.66216884599245  7.84394870146405 7.43793203037031  C 7.84394870146405 7.3290961962032  7.80025334471143 7.22481694132447  7.72266667109375 7.14849167109375  L 6.574175 6  L 7.72266667109375 4.85150832890625  C 7.8002533447114 4.77518305867554  7.84394870146401 4.67090380379682  7.84394870146401 4.56206796962974  C 7.84394870146401 4.33783115400759  7.6621688459924 4.15605129853599  7.43793203037026 4.15605129853599  C 7.32909619620318 4.15605129853599  7.22481694132446 4.19974665528859  7.14849167109375 4.27733332890625  L 6 5.425825  Z " fill-rule="nonzero" fill="#d9001b" stroke="none" transform="matrix(1 0 0 1 466 1420 )" />
  </g>
</svg>