<?xml version="1.0" encoding="utf-8"?>
<svg version="1.1" xmlns:xlink="http://www.w3.org/1999/xlink" width="28px" height="28px" xmlns="http://www.w3.org/2000/svg">
  <g transform="matrix(1 0 0 1 -1791 -272 )">
    <path d="M 24.9265625 17.8171875  L 24.9265625 23.5375  C 24.9265625 24.521875  24.0953125 25.34765625  23.11640625 25  L 3.98671875 25  C 3.0078125 25.38046875  2.209375 24.58203125  2.209375 23.59765625  L 2.2421875 4.46796875  C 2.2421875 3.4890625  3.0734375 2.6578125  4.05234375 3  L 14.634375 3  L 14.634375 1  L 4.05234375 1  C 1.815625 0.55234375  0.1421875 2.81640625  0.1421875 4.83984375  L 0.1421875 23.59765625  C 0.1421875 25.71953125  1.86484375 27.44765625  3.9921875 27  L 22.75 27  C 24.9921875 27.44765625  27.03203125 25.5828125  27.03203125 23.5375  L 27.03203125 17.8171875  L 24.9265625 17.8171875  Z M 19.96640625 1.6625  L 27.8578125 9.5703125  L 19.96640625 17.47265625  L 19.96640625 12.95546875  C 19.96640625 12.95546875  12.13515625 12.0859375  7.56328125 18.6046875  C 7.56328125 18.6046875  9.0015625 6.1796875  19.96640625 6.1796875  L 19.96640625 1.6625  Z " fill-rule="nonzero" fill="#ffffff" stroke="none" transform="matrix(1 0 0 1 1791 272 )" />
  </g>
</svg>