<?xml version="1.0" encoding="utf-8"?>
<svg version="1.1" xmlns:xlink="http://www.w3.org/1999/xlink" width="23px" height="23px" xmlns="http://www.w3.org/2000/svg">
  <g transform="matrix(1 0 0 1 -103 -1579 )">
    <path d="M 114.5 1585  C 117.58 1585  120 1587.42  120 1590.5  C 120 1593.58  117.58 1596  114.5 1596  C 111.42 1596  109 1593.58  109 1590.5  C 109 1587.42  111.42 1585  114.5 1585  Z " fill-rule="nonzero" fill="#ffffff" stroke="none" fill-opacity="0" />
    <path d="M 114.5 1582.5  C 118.98 1582.5  122.5 1586.02  122.5 1590.5  C 122.5 1594.98  118.98 1598.5  114.5 1598.5  C 110.02 1598.5  106.5 1594.98  106.5 1590.5  C 106.5 1586.02  110.02 1582.5  114.5 1582.5  Z " stroke-width="7" stroke="#ffffff" fill="none" />
  </g>
</svg>