<?xml version="1.0" encoding="utf-8"?>
<svg version="1.1" xmlns:xlink="http://www.w3.org/1999/xlink" width="26px" height="26px" xmlns="http://www.w3.org/2000/svg">
  <g transform="matrix(1 0 0 1 -1899 -852 )">
    <path d="M 26 13  C 26 5.82029825219967  20.1797017478003 0  13 0  C 5.82029825219973 0  0 5.82029825219967  0 13  C 0 20.1797017478003  5.82029825219973 26  13 26  C 20.1797017478003 26  26 20.1797017478003  26 13  Z M 7.90237499999997 18.7776063833758  C 7.52683165179278 18.7776063833758  7.22239361662433 18.4731683482073  7.22239361662433 18.097625  C 7.22239361662433 17.9172827243448  7.29403430668395 17.7443267987848  7.42155555273448 17.6168055527344  L 12.0380000000001 13  L 7.42155555273448 8.38319444726564  C 7.29403430668395 8.25567320121523  7.22239361662433 8.08271727565517  7.22239361662433 7.90237499999997  C 7.22239361662433 7.52683165179272  7.52683165179278 7.2223936166242  7.90237499999997 7.2223936166242  C 8.08271727565517 7.2223936166242  8.25567320121517 7.29403430668402  8.3831944472657 7.42155555273436  L 13 12.038  L 17.6168055527343 7.42155555273436  C 17.7443267987848 7.29403430668402  17.9172827243448 7.2223936166242  18.097625 7.2223936166242  C 18.4731683482072 7.2223936166242  18.7776063833757 7.52683165179272  18.7776063833757 7.90237500000003  C 18.7776063833757 8.08271727565517  18.705965693316 8.25567320121523  18.5784444472655 8.38319444726564  L 13.9619999999999 13  L 18.5784444472655 17.6168055527344  C 18.705965693316 17.7443267987848  18.7776063833757 17.9172827243448  18.7776063833757 18.097625  C 18.7776063833757 18.4731683482073  18.4731683482072 18.7776063833758  18.097625 18.7776063833758  C 17.9172827243448 18.7776063833758  17.7443267987848 18.705965693316  17.6168055527343 18.5784444472656  L 13 13.962  L 8.3831944472657 18.5784444472656  C 8.25567320121517 18.705965693316  8.08271727565517 18.7776063833758  7.90237499999997 18.7776063833758  Z " fill-rule="nonzero" fill="#000000" stroke="none" fill-opacity="0.498039215686275" transform="matrix(1 0 0 1 1899 852 )" />
  </g>
</svg>