<?xml version="1.0" encoding="utf-8"?>
<svg version="1.1" xmlns:xlink="http://www.w3.org/1999/xlink" width="28px" height="27px" xmlns="http://www.w3.org/2000/svg">
  <g transform="matrix(1 0 0 1 -2330 -489 )">
    <path d="M 13.7302717117117 25.45  L 13.7302717117117 26.986  L 5.36179315315315 26.986  C 2.53577406530932 26.9824738888296  0.245720040099826 24.7128667745595  0.242162162162162 21.91208  L 0.242162162162162 5.11592  C 0.245720040099824 2.31513322544048  2.53577406530932 0.0455261111703615  5.36179315315315 0  L 22.7613059459459 0  C 25.5873250337898 0.0455261111703604  27.8773790589993 2.31513322544048  27.8809369369369 5.11592  L 27.8809369369369 13.546  L 26.3310990990991 13.546  L 26.3310990990991 5.11592  C 26.3289636551629 3.16285804183717  24.731963056885 1.58011637747252  22.7613059459459 2  L 5.36179315315315 2  C 3.39113604221408 1.58011637747252  1.79413544393623 3.16285804183717  2 5.11592  L 2 21.91208  C 1.79413544393623 23.8651419581628  3.39113604221408 25.4478836225275  5.36179315315315 25.45  L 13.7302717117117 25.45  Z " fill-rule="nonzero" fill="#138fe0" stroke="none" transform="matrix(1 0 0 1 2330 489 )" />
  </g>
</svg>