<?xml version="1.0" encoding="utf-8"?>
<svg version="1.1" xmlns:xlink="http://www.w3.org/1999/xlink" width="36px" height="36px" xmlns="http://www.w3.org/2000/svg">
  <g transform="matrix(1 0 0 1 -1924 -1374 )">
    <path d="M 36 18  C 36 8.0588745030457  27.9411254969542 0  18 0  C 8.05887450304579 0  0 8.0588745030457  0 18  C 0 27.9411254969543  8.05887450304579 36  18 36  C 27.9411254969542 36  36 27.9411254969543  36 18  Z M 10.94175 25.9997626846742  C 10.4217669024823 25.9997626846742  10.000237315326 25.5782330975178  10.000237315326 25.05825  C 10.000237315326 24.8085453106313  10.099432116947 24.5690678752404  10.2759999960939 24.3924999960937  L 16.6680000000001 18  L 10.2759999960939 11.6075000039063  C 10.099432116947 11.4309321247596  10.000237315326 11.1914546893687  10.000237315326 10.94175  C 10.000237315326 10.4217669024822  10.4217669024823 10.0002373153258  10.94175 10.0002373153258  C 11.1914546893687 10.0002373153258  11.4309321247595 10.0994321169471  11.6075000039064 10.2759999960937  L 18 16.668  L 24.3924999960936 10.2759999960937  C 24.5690678752405 10.0994321169471  24.8085453106313 10.0002373153258  25.05825 10.0002373153258  C 25.5782330975177 10.0002373153258  25.999762684674 10.4217669024822  25.999762684674 10.94175  C 25.999762684674 11.1914546893687  25.900567883053 11.4309321247596  25.7240000039061 11.6075000039063  L 19.3319999999999 18  L 25.7240000039061 24.3924999960937  C 25.900567883053 24.5690678752404  25.999762684674 24.8085453106313  25.999762684674 25.05825  C 25.999762684674 25.5782330975178  25.5782330975177 25.9997626846742  25.05825 25.9997626846742  C 24.8085453106313 25.9997626846742  24.5690678752405 25.9005678830529  24.3924999960936 25.7240000039063  L 18 19.332  L 11.6075000039064 25.7240000039063  C 11.4309321247595 25.9005678830529  11.1914546893687 25.9997626846742  10.94175 25.9997626846742  Z " fill-rule="nonzero" fill="#000000" stroke="none" fill-opacity="0.498039215686275" transform="matrix(1 0 0 1 1924 1374 )" />
  </g>
</svg>