<?xml version="1.0" encoding="utf-8"?>
<svg version="1.1" xmlns:xlink="http://www.w3.org/1999/xlink" width="13px" height="13px" xmlns="http://www.w3.org/2000/svg">
  <g transform="matrix(1 0 0 1 -302 -429 )">
    <path d="M 8.03794642675781 9.75725446972656  C 8.34747023990885 9.93136161621094  8.54334077441406 9.83947173404948  8.62555803027344 9.48158482324219  L 9.69196428027344 4.45424107324219  C 9.73549106477865 4.24144345540365  9.71010043977865 4.08909970540365  9.61579240527344 3.99720982324219  C 9.52148437076823 3.90531994108073  9.39694940234375 3.8883928577474  9.2421875 3.94642857324219  L 2.97433035351563 6.36216517675781  C 2.83407737369792 6.41536457910156  2.73856026302083 6.4758184469401  2.68777902148438 6.54352678027344  C 2.63699777994792 6.61123511360677  2.630952390625 6.67531621842448  2.66964285351563 6.73577009472656  C 2.70833331640625 6.79622397102865  2.7857142718099 6.84337798828125  2.90178571972656 6.87723214648438  L 4.50502232324219 7.37779017675781  L 8.2265625 5.03459821972656  C 8.328125 4.96688988639323  8.40550595117188 4.95238095540365  8.45870535351562 4.99107142675782  C 8.49255952018229 5.01525297558594  8.48288690234375 5.05152529882813  8.4296875 5.09988839648438  L 5.41908482324219 7.8203125  L 5.30301339648438 9.47433035351563  C 5.41424851432292 9.47433035351563  5.52306547558594 9.42113095117188  5.62946428027344 9.31473214648438  L 6.41294642675781 8.56026785351563  L 8.03794642675781 9.75725446972656  Z M 12.4849330302734 3.97544642675781  C 12.8283110100911 4.77827380891927  13 5.61979166666667  13 6.5  C 13 7.38020833333333  12.8283110100911 8.22172619108073  12.4849330302734 9.02455357324219  C 12.1415550504557 9.82738095540365  11.6796874915365 10.5189732154948  11.0993303535156 11.0993303535156  C 10.5189732154948 11.6796874915365  9.82738095540365 12.1415550504557  9.02455357324219 12.4849330302734  C 8.22172619108073 12.8283110100911  7.38020833333333 13  6.5 13  C 5.61979166666667 13  4.77827380891927 12.8283110100911  3.97544642675781 12.4849330302734  C 3.17261904459635 12.1415550504557  2.48102678450521 11.6796874915365  1.90066964648437 11.0993303535156  C 1.32031250846354 10.5189732154948  0.858444949544269 9.82738095540365  0.515066969726562 9.02455357324219  C 0.171688989908854 8.22172619108073  0 7.38020833333333  0 6.5  C 0 5.61979166666667  0.171688989908854 4.77827380891927  0.515066969726563 3.97544642675781  C 0.858444949544271 3.17261904459635  1.32031250846354 2.48102678450521  1.90066964648438 1.90066964648437  C 2.48102678450521 1.32031250846354  3.17261904459636 0.858444949544271  3.97544642675781 0.515066969726563  C 4.77827380891927 0.171688989908854  5.61979166666667 0  6.5 0  C 7.38020833333333 0  8.22172619108073 0.171688989908854  9.02455357324219 0.515066969726563  C 9.82738095540365 0.858444949544271  10.5189732154948 1.32031250846354  11.0993303535156 1.90066964648438  C 11.6796874915365 2.48102678450521  12.1415550504557 3.17261904459636  12.4849330302734 3.97544642675781  Z " fill-rule="nonzero" fill="#138fe0" stroke="none" transform="matrix(1 0 0 1 302 429 )" />
  </g>
</svg>