<?xml version="1.0" encoding="utf-8"?>
<svg version="1.1" xmlns:xlink="http://www.w3.org/1999/xlink" width="11px" height="11px" xmlns="http://www.w3.org/2000/svg">
  <g transform="matrix(1 0 0 1 -153 -1420 )">
    <path d="M 10.9474291666667 5.495221875  C 10.9474291666667 2.48591979166667  8.50388229166667 0.0463947916666664  5.48948125 0.0463947916666667  C 2.47514895833333 0.0463947916666667  0.0315333333333334 2.48590833333333  0.0315333333333334 5.495221875  C 0.0315333333333334 8.50453541666667  2.47514895833333 10.9440489583333  5.48948125 10.9440489583333  C 8.503859375 10.9440489583333  10.9474291666667 8.50453541666667  10.9474291666667 5.495221875  Z M 8.4904875 4.18916666666667  L 4.97701875 7.7787875  C 4.8153875 7.94393645833333  4.553175 7.94393645833333  4.39156666666667 7.7787875  L 2.48848645833333 5.83435416666667  C 2.32675208333333 5.66919375  2.32675208333333 5.40136666666667  2.48848645833333 5.23616041666667  C 2.65010625 5.07094270833333  2.91233020833333 5.07094270833333  3.07393854166667 5.23616041666667  L 4.68430416666667 6.88140520833333  L 7.90492083333333 3.59092708333333  C 8.06665520833333 3.42572083333333  8.328890625 3.42572083333333  8.49049895833333 3.59092708333333  C 8.65223333333333 3.756121875  8.65223333333333 4.02396041666667  8.49049895833333 4.18916666666667  Z " fill-rule="nonzero" fill="#00c05b" stroke="none" transform="matrix(1 0 0 1 153 1420 )" />
  </g>
</svg>