<?xml version="1.0" encoding="utf-8"?>
<svg version="1.1" xmlns:xlink="http://www.w3.org/1999/xlink" width="914px" height="169px" xmlns="http://www.w3.org/2000/svg">
  <g transform="matrix(1 0 0 1 -1248 -419 )">
    <path d="M 1249 422  A 2 2 0 0 1 1251 420 L 2159 420  A 2 2 0 0 1 2161 422 L 2161 585  A 2 2 0 0 1 2159 587 L 1251 587  A 2 2 0 0 1 1249 585 L 1249 422  Z " fill-rule="nonzero" fill="#ffffff" stroke="none" />
    <path d="M 1248.5 422  A 2.5 2.5 0 0 1 1251 419.5 L 2159 419.5  A 2.5 2.5 0 0 1 2161.5 422 L 2161.5 585  A 2.5 2.5 0 0 1 2159 587.5 L 1251 587.5  A 2.5 2.5 0 0 1 1248.5 585 L 1248.5 422  Z " stroke-width="1" stroke-dasharray="3,1" stroke="#d7d7d7" fill="none" stroke-dashoffset="0.5" />
  </g>
</svg>