<?xml version="1.0" encoding="utf-8"?>
<svg version="1.1" xmlns:xlink="http://www.w3.org/1999/xlink" width="914px" height="80px" xmlns="http://www.w3.org/2000/svg">
  <g transform="matrix(1 0 0 1 -105 -598 )">
    <path d="M 106 601  A 2 2 0 0 1 108 599 L 1016 599  A 2 2 0 0 1 1018 601 L 1018 675  A 2 2 0 0 1 1016 677 L 108 677  A 2 2 0 0 1 106 675 L 106 601  Z " fill-rule="nonzero" fill="#f2f2f2" stroke="none" fill-opacity="0" />
    <path d="M 105.5 601  A 2.5 2.5 0 0 1 108 598.5 L 1016 598.5  A 2.5 2.5 0 0 1 1018.5 601 L 1018.5 675  A 2.5 2.5 0 0 1 1016 677.5 L 108 677.5  A 2.5 2.5 0 0 1 105.5 675 L 105.5 601  Z " stroke-width="1" stroke-dasharray="3,1" stroke="#d7d7d7" fill="none" stroke-dashoffset="0.5" />
  </g>
</svg>