<?xml version="1.0" encoding="utf-8"?>
<svg version="1.1" xmlns:xlink="http://www.w3.org/1999/xlink" width="914px" height="168px" xmlns="http://www.w3.org/2000/svg">
  <g transform="matrix(1 0 0 1 -263 -697 )">
    <path d="M 264 700  A 2 2 0 0 1 266 698 L 1174 698  A 2 2 0 0 1 1176 700 L 1176 862  A 2 2 0 0 1 1174 864 L 266 864  A 2 2 0 0 1 264 862 L 264 700  Z " fill-rule="nonzero" fill="#f2f2f2" stroke="none" fill-opacity="0" />
    <path d="M 263.5 700  A 2.5 2.5 0 0 1 266 697.5 L 1174 697.5  A 2.5 2.5 0 0 1 1176.5 700 L 1176.5 862  A 2.5 2.5 0 0 1 1174 864.5 L 266 864.5  A 2.5 2.5 0 0 1 263.5 862 L 263.5 700  Z " stroke-width="1" stroke-dasharray="3,1" stroke="#d7d7d7" fill="none" stroke-dashoffset="0.5" />
  </g>
</svg>