<?xml version="1.0" encoding="utf-8"?>
<svg version="1.1" xmlns:xlink="http://www.w3.org/1999/xlink" width="914px" height="164px" xmlns="http://www.w3.org/2000/svg">
  <g transform="matrix(1 0 0 1 -263 -931 )">
    <path d="M 264 934  A 2 2 0 0 1 266 932 L 1174 932  A 2 2 0 0 1 1176 934 L 1176 1092  A 2 2 0 0 1 1174 1094 L 266 1094  A 2 2 0 0 1 264 1092 L 264 934  Z " fill-rule="nonzero" fill="#f2f2f2" stroke="none" fill-opacity="0" />
    <path d="M 263.5 934  A 2.5 2.5 0 0 1 266 931.5 L 1174 931.5  A 2.5 2.5 0 0 1 1176.5 934 L 1176.5 1092  A 2.5 2.5 0 0 1 1174 1094.5 L 266 1094.5  A 2.5 2.5 0 0 1 263.5 1092 L 263.5 934  Z " stroke-width="1" stroke-dasharray="3,1" stroke="#d7d7d7" fill="none" stroke-dashoffset="0.5" />
  </g>
</svg>