<?xml version="1.0" encoding="utf-8"?>
<svg version="1.1" xmlns:xlink="http://www.w3.org/1999/xlink" width="914px" height="229px" xmlns="http://www.w3.org/2000/svg">
  <g transform="matrix(1 0 0 1 -263 -518 )">
    <path d="M 264 521  A 2 2 0 0 1 266 519 L 1174 519  A 2 2 0 0 1 1176 521 L 1176 744  A 2 2 0 0 1 1174 746 L 266 746  A 2 2 0 0 1 264 744 L 264 521  Z " fill-rule="nonzero" fill="#f2f2f2" stroke="none" fill-opacity="0" />
    <path d="M 263.5 521  A 2.5 2.5 0 0 1 266 518.5 L 1174 518.5  A 2.5 2.5 0 0 1 1176.5 521 L 1176.5 744  A 2.5 2.5 0 0 1 1174 746.5 L 266 746.5  A 2.5 2.5 0 0 1 263.5 744 L 263.5 521  Z " stroke-width="1" stroke-dasharray="3,1" stroke="#d7d7d7" fill="none" stroke-dashoffset="0.5" />
  </g>
</svg>