<?xml version="1.0" encoding="utf-8"?>
<svg version="1.1" xmlns:xlink="http://www.w3.org/1999/xlink" width="914px" height="241px" xmlns="http://www.w3.org/2000/svg">
  <g transform="matrix(1 0 0 1 -1266 -1329 )">
    <path d="M 1267 1332  A 2 2 0 0 1 1269 1330 L 2177 1330  A 2 2 0 0 1 2179 1332 L 2179 1567  A 2 2 0 0 1 2177 1569 L 1269 1569  A 2 2 0 0 1 1267 1567 L 1267 1332  Z " fill-rule="nonzero" fill="#ffffff" stroke="none" />
    <path d="M 1266.5 1332  A 2.5 2.5 0 0 1 1269 1329.5 L 2177 1329.5  A 2.5 2.5 0 0 1 2179.5 1332 L 2179.5 1567  A 2.5 2.5 0 0 1 2177 1569.5 L 1269 1569.5  A 2.5 2.5 0 0 1 1266.5 1567 L 1266.5 1332  Z " stroke-width="1" stroke-dasharray="3,1" stroke="#d7d7d7" fill="none" stroke-dashoffset="0.5" />
  </g>
</svg>