<?xml version="1.0" encoding="utf-8"?>
<svg version="1.1" xmlns:xlink="http://www.w3.org/1999/xlink" width="914px" height="78px" xmlns="http://www.w3.org/2000/svg">
  <g transform="matrix(1 0 0 1 -263 -1524 )">
    <path d="M 264 1527  A 2 2 0 0 1 266 1525 L 1174 1525  A 2 2 0 0 1 1176 1527 L 1176 1599  A 2 2 0 0 1 1174 1601 L 266 1601  A 2 2 0 0 1 264 1599 L 264 1527  Z " fill-rule="nonzero" fill="#f2f2f2" stroke="none" fill-opacity="0" />
    <path d="M 263.5 1527  A 2.5 2.5 0 0 1 266 1524.5 L 1174 1524.5  A 2.5 2.5 0 0 1 1176.5 1527 L 1176.5 1599  A 2.5 2.5 0 0 1 1174 1601.5 L 266 1601.5  A 2.5 2.5 0 0 1 263.5 1599 L 263.5 1527  Z " stroke-width="1" stroke-dasharray="3,1" stroke="#d7d7d7" fill="none" stroke-dashoffset="0.5" />
  </g>
</svg>