<?xml version="1.0" encoding="utf-8"?>
<svg version="1.1" xmlns:xlink="http://www.w3.org/1999/xlink" width="100px" height="24px" xmlns="http://www.w3.org/2000/svg">
  <defs>
    <mask fill="white" id="clip73">
      <path d="M 0 22  L 0 2  C 0 0.879999999999995  0.879999999999995 0  2 0  L 74.6585365853659 0  L 98 0  C 99.12 0  100 0.879999999999995  100 2  L 100 22  C 100 23.12  99.12 24  98 24  L 2 24  C 0.879999999999995 24  0 23.12  0 22  Z " fill-rule="evenodd" />
    </mask>
  </defs>
  <g transform="matrix(1 0 0 1 -629 -887 )">
    <path d="M 0 22  L 0 2  C 0 0.879999999999995  0.879999999999995 0  2 0  L 74.6585365853659 0  L 98 0  C 99.12 0  100 0.879999999999995  100 2  L 100 22  C 100 23.12  99.12 24  98 24  L 2 24  C 0.879999999999995 24  0 23.12  0 22  Z " fill-rule="nonzero" fill="#f2f2f2" stroke="none" transform="matrix(1 0 0 1 629 887 )" />
    <path d="M 0 22  L 0 2  C 0 0.879999999999995  0.879999999999995 0  2 0  L 74.6585365853659 0  L 98 0  C 99.12 0  100 0.879999999999995  100 2  L 100 22  C 100 23.12  99.12 24  98 24  L 2 24  C 0.879999999999995 24  0 23.12  0 22  Z " stroke-width="2" stroke="#d7d7d7" fill="none" transform="matrix(1 0 0 1 629 887 )" mask="url(#clip73)" />
  </g>
</svg>