<?xml version="1.0" encoding="utf-8"?>
<svg version="1.1" xmlns:xlink="http://www.w3.org/1999/xlink" width="914px" height="166px" xmlns="http://www.w3.org/2000/svg">
  <g transform="matrix(1 0 0 1 -263 -1329 )">
    <path d="M 264 1332  A 2 2 0 0 1 266 1330 L 1174 1330  A 2 2 0 0 1 1176 1332 L 1176 1492  A 2 2 0 0 1 1174 1494 L 266 1494  A 2 2 0 0 1 264 1492 L 264 1332  Z " fill-rule="nonzero" fill="#f2f2f2" stroke="none" fill-opacity="0" />
    <path d="M 263.5 1332  A 2.5 2.5 0 0 1 266 1329.5 L 1174 1329.5  A 2.5 2.5 0 0 1 1176.5 1332 L 1176.5 1492  A 2.5 2.5 0 0 1 1174 1494.5 L 266 1494.5  A 2.5 2.5 0 0 1 263.5 1492 L 263.5 1332  Z " stroke-width="1" stroke-dasharray="3,1" stroke="#d7d7d7" fill="none" stroke-dashoffset="0.5" />
  </g>
</svg>