<?xml version="1.0" encoding="utf-8"?>
<svg version="1.1" xmlns:xlink="http://www.w3.org/1999/xlink" width="9px" height="9px" xmlns="http://www.w3.org/2000/svg">
  <g transform="matrix(1 0 0 1 -538 -1097 )">
    <path d="M 8.97415216619318 4.49973153409091  C 8.97415216619318 4.79629613591974  8.63481210604581 5.03666201393821  8.43722168634588 5.03666201393821  L 5.03666201393821 5.03666201393821  L 5.03666201393821 8.43722168634588  C 5.03666201393821 8.63499108331854  4.79629613591974 8.97415216619318  4.49973153409091 8.97415216619318  C 4.2033459095348 8.97415216619318  3.96280105424361 8.63499108331854  3.96280105424361 8.43722168634588  L 3.96280105424361 5.03666201393821  L 0.562241381835937 5.03666201393821  C 0.364650962136009 5.03666201393821  0.0253109019886364 4.79629613591974  0.0253109019886364 4.49973153409091  C 0.0253109019886364 4.20316693226207  0.364650962136009 3.96280105424361  0.562241381835937 3.96280105424361  L 3.96280105424361 3.96280105424361  L 3.96280105424361 0.562241381835937  C 3.96280105424361 0.364650962136009  4.2033459095348 0.0253109019886364  4.49973153409091 0.0253109019886364  C 4.79629613591974 0.0253109019886364  5.03666201393821 0.364650962136009  5.03666201393821 0.562241381835937  L 5.03666201393821 3.96280105424361  L 8.43722168634588 3.96280105424361  C 8.63481210604581 3.96280105424361  8.97415216619318 4.20316693226207  8.97415216619318 4.49973153409091  Z " fill-rule="nonzero" fill="#000000" stroke="none" transform="matrix(1 0 0 1 538 1097 )" />
  </g>
</svg>