<?xml version="1.0" encoding="utf-8"?>
<svg version="1.1" xmlns:xlink="http://www.w3.org/1999/xlink" width="15px" height="22px" xmlns="http://www.w3.org/2000/svg">
  <g transform="matrix(1 0 0 1 -296 -436 )">
    <path d="M 4.31743421052632 18.1805555555556  C 3.84868421052632 17.7876984126984  3.23190789473684 17.547619047619  2.56578947368421 17.547619047619  C 1.89967105263158 17.547619047619  1.28289473684211 17.7876984126984  0.814144736842105 18.1805555555556  C 0.370065789473686 18.5952380952381  0.0986842105263158 19.140873015873  0.0986842105263158 19.7301587301587  C 0.0986842105263158 20.3194444444444  0.370065789473686 20.8650793650794  0.814144736842105 21.2797619047619  C 1.28289473684211 21.672619047619  1.89967105263158 21.9126984126984  2.56578947368421 21.9126984126984  C 3.23190789473684 21.9126984126984  3.84868421052632 21.672619047619  4.31743421052632 21.2797619047619  C 4.78618421052632 20.8650793650794  5.03289473684211 20.3194444444444  5.03289473684211 19.7301587301587  C 5.03289473684211 19.140873015873  4.78618421052632 18.5952380952381  4.31743421052632 18.1805555555556  Z M 14.1858552631579 18.1805555555556  C 13.7171052631579 17.7876984126984  13.1003289473684 17.547619047619  12.4342105263158 17.547619047619  C 11.7680921052632 17.547619047619  11.1513157894737 17.7876984126984  10.6825657894737 18.1805555555556  C 10.2384868421053 18.5952380952381  9.9671052631579 19.140873015873  9.9671052631579 19.7301587301587  C 9.9671052631579 20.3194444444444  10.2384868421053 20.8650793650794  10.6825657894737 21.2797619047619  C 11.1513157894737 21.672619047619  11.7680921052632 21.9126984126984  12.4342105263158 21.9126984126984  C 13.1003289473684 21.9126984126984  13.7171052631579 21.672619047619  14.1858552631579 21.2797619047619  C 14.6546052631579 20.8650793650794  14.9013157894737 20.3194444444444  14.9013157894737 19.7301587301587  C 14.9013157894737 19.140873015873  14.6546052631579 18.5952380952381  14.1858552631579 18.1805555555556  Z M 4.31743421052632 9.45039682539682  C 3.84868421052632 9.05753968253968  3.23190789473684 8.81746031746032  2.56578947368421 8.81746031746032  C 1.89967105263158 8.81746031746032  1.28289473684211 9.05753968253968  0.814144736842105 9.45039682539682  C 0.370065789473686 9.86507936507937  0.0986842105263158 10.4107142857143  0.0986842105263158 11  C 0.0986842105263158 11.5892857142857  0.370065789473686 12.1349206349206  0.814144736842105 12.5496031746032  C 1.28289473684211 12.9424603174603  1.89967105263158 13.1825396825397  2.56578947368421 13.1825396825397  C 3.23190789473684 13.1825396825397  3.84868421052632 12.9424603174603  4.31743421052632 12.5496031746032  C 4.78618421052632 12.1349206349206  5.03289473684211 11.5892857142857  5.03289473684211 11  C 5.03289473684211 10.4107142857143  4.78618421052632 9.86507936507937  4.31743421052632 9.45039682539682  Z M 14.1858552631579 9.45039682539682  C 13.7171052631579 9.05753968253968  13.1003289473684 8.81746031746032  12.4342105263158 8.81746031746032  C 11.7680921052632 8.81746031746032  11.1513157894737 9.05753968253968  10.6825657894737 9.45039682539682  C 10.2384868421053 9.86507936507937  9.9671052631579 10.4107142857143  9.9671052631579 11  C 9.9671052631579 11.5892857142857  10.2384868421053 12.1349206349206  10.6825657894737 12.5496031746032  C 11.1513157894737 12.9424603174603  11.7680921052632 13.1825396825397  12.4342105263158 13.1825396825397  C 13.1003289473684 13.1825396825397  13.7171052631579 12.9424603174603  14.1858552631579 12.5496031746032  C 14.6546052631579 12.1349206349206  14.9013157894737 11.5892857142857  14.9013157894737 11  C 14.9013157894737 10.4107142857143  14.6546052631579 9.86507936507937  14.1858552631579 9.45039682539682  Z M 4.31743421052632 0.720238095238095  C 3.84868421052632 0.327380952380952  3.23190789473684 0.0873015873015873  2.56578947368421 0.0873015873015873  C 1.89967105263158 0.0873015873015873  1.28289473684211 0.327380952380952  0.814144736842105 0.720238095238095  C 0.370065789473686 1.13492063492063  0.0986842105263158 1.68055555555556  0.0986842105263158 2.26984126984127  C 0.0986842105263158 2.85912698412698  0.370065789473686 3.4047619047619  0.814144736842105 3.81944444444444  C 1.28289473684211 4.21230158730159  1.89967105263158 4.45238095238095  2.56578947368421 4.45238095238095  C 3.23190789473684 4.45238095238095  3.84868421052632 4.21230158730159  4.31743421052632 3.81944444444444  C 4.78618421052632 3.4047619047619  5.03289473684211 2.85912698412698  5.03289473684211 2.26984126984127  C 5.03289473684211 1.68055555555556  4.78618421052632 1.13492063492063  4.31743421052632 0.720238095238095  Z M 10.6825657894737 3.81944444444444  C 11.1513157894737 4.21230158730159  11.7680921052632 4.45238095238095  12.4342105263158 4.45238095238095  C 13.1003289473684 4.45238095238095  13.7171052631579 4.21230158730159  14.1858552631579 3.81944444444444  C 14.6546052631579 3.4047619047619  14.9013157894737 2.85912698412698  14.9013157894737 2.26984126984127  C 14.9013157894737 1.68055555555556  14.6546052631579 1.13492063492063  14.1858552631579 0.720238095238095  C 13.7171052631579 0.327380952380952  13.1003289473684 0.0873015873015873  12.4342105263158 0.0873015873015873  C 11.7680921052632 0.0873015873015873  11.1513157894737 0.327380952380952  10.6825657894737 0.720238095238095  C 10.2384868421053 1.13492063492063  9.9671052631579 1.68055555555556  9.9671052631579 2.26984126984127  C 9.9671052631579 2.85912698412698  10.2384868421053 3.4047619047619  10.6825657894737 3.81944444444444  Z " fill-rule="nonzero" fill="#000000" stroke="none" transform="matrix(1 0 0 1 296 436 )" />
  </g>
</svg>