<?xml version="1.0" encoding="utf-8"?>
<svg version="1.1" xmlns:xlink="http://www.w3.org/1999/xlink" width="914px" height="68px" xmlns="http://www.w3.org/2000/svg">
  <g transform="matrix(1 0 0 1 -403 -690 )">
    <path d="M 404 693  A 2 2 0 0 1 406 691 L 1314 691  A 2 2 0 0 1 1316 693 L 1316 755  A 2 2 0 0 1 1314 757 L 406 757  A 2 2 0 0 1 404 755 L 404 693  Z " fill-rule="nonzero" fill="#f2f2f2" stroke="none" fill-opacity="0" />
    <path d="M 403.5 693  A 2.5 2.5 0 0 1 406 690.5 L 1314 690.5  A 2.5 2.5 0 0 1 1316.5 693 L 1316.5 755  A 2.5 2.5 0 0 1 1314 757.5 L 406 757.5  A 2.5 2.5 0 0 1 403.5 755 L 403.5 693  Z " stroke-width="1" stroke-dasharray="3,1" stroke="#d7d7d7" fill="none" stroke-dashoffset="0.5" />
  </g>
</svg>