<?xml version="1.0" encoding="utf-8"?>
<svg version="1.1" xmlns:xlink="http://www.w3.org/1999/xlink" width="104px" height="104px" xmlns="http://www.w3.org/2000/svg">
  <g transform="matrix(1 0 0 1 -403 -515 )">
    <path d="M 404 519  A 3 3 0 0 1 407 516 L 503 516  A 3 3 0 0 1 506 519 L 506 615  A 3 3 0 0 1 503 618 L 407 618  A 3 3 0 0 1 404 615 L 404 519  Z " fill-rule="nonzero" fill="#000000" stroke="none" fill-opacity="0.0196078431372549" />
    <path d="M 403.5 519  A 3.5 3.5 0 0 1 407 515.5 L 503 515.5  A 3.5 3.5 0 0 1 506.5 519 L 506.5 615  A 3.5 3.5 0 0 1 503 618.5 L 407 618.5  A 3.5 3.5 0 0 1 403.5 615 L 403.5 519  Z " stroke-width="1" stroke-dasharray="9,4" stroke="#d9d9d9" fill="none" stroke-dashoffset="0.5" />
  </g>
</svg>