<?xml version="1.0" encoding="utf-8"?>
<svg version="1.1" xmlns:xlink="http://www.w3.org/1999/xlink" width="16px" height="16px" xmlns="http://www.w3.org/2000/svg">
  <g transform="matrix(1 0 0 1 -1530 -533 )">
    <path d="M 1538 534  C 1541.92 534  1545 537.08  1545 541  C 1545 544.92  1541.92 548  1538 548  C 1534.08 548  1531 544.92  1531 541  C 1531 537.08  1534.08 534  1538 534  Z " fill-rule="nonzero" fill="#ffffff" stroke="none" />
    <path d="M 1538 534  C 1541.92 534  1545 537.08  1545 541  C 1545 544.92  1541.92 548  1538 548  C 1534.08 548  1531 544.92  1531 541  C 1531 537.08  1534.08 534  1538 534  Z " stroke-width="2" stroke="#797979" fill="none" />
  </g>
</svg>