<?xml version="1.0" encoding="utf-8"?>
<svg version="1.1" xmlns:xlink="http://www.w3.org/1999/xlink" width="914px" height="124px" xmlns="http://www.w3.org/2000/svg">
  <g transform="matrix(1 0 0 1 -263 -640 )">
    <path d="M 264 643  A 2 2 0 0 1 266 641 L 1174 641  A 2 2 0 0 1 1176 643 L 1176 761  A 2 2 0 0 1 1174 763 L 266 763  A 2 2 0 0 1 264 761 L 264 643  Z " fill-rule="nonzero" fill="#f2f2f2" stroke="none" fill-opacity="0" />
    <path d="M 263.5 643  A 2.5 2.5 0 0 1 266 640.5 L 1174 640.5  A 2.5 2.5 0 0 1 1176.5 643 L 1176.5 761  A 2.5 2.5 0 0 1 1174 763.5 L 266 763.5  A 2.5 2.5 0 0 1 263.5 761 L 263.5 643  Z " stroke-width="1" stroke-dasharray="3,1" stroke="#d7d7d7" fill="none" stroke-dashoffset="0.5" />
  </g>
</svg>