<?xml version="1.0" encoding="utf-8"?>
<svg version="1.1" xmlns:xlink="http://www.w3.org/1999/xlink" width="914px" height="62px" xmlns="http://www.w3.org/2000/svg">
  <g transform="matrix(1 0 0 1 -263 -233 )">
    <path d="M 264 236  A 2 2 0 0 1 266 234 L 1174 234  A 2 2 0 0 1 1176 236 L 1176 292  A 2 2 0 0 1 1174 294 L 266 294  A 2 2 0 0 1 264 292 L 264 236  Z " fill-rule="nonzero" fill="#f2f2f2" stroke="none" fill-opacity="0" />
    <path d="M 263.5 236  A 2.5 2.5 0 0 1 266 233.5 L 1174 233.5  A 2.5 2.5 0 0 1 1176.5 236 L 1176.5 292  A 2.5 2.5 0 0 1 1174 294.5 L 266 294.5  A 2.5 2.5 0 0 1 263.5 292 L 263.5 236  Z " stroke-width="1" stroke-dasharray="3,1" stroke="#d7d7d7" fill="none" stroke-dashoffset="0.5" />
  </g>
</svg>