<?xml version="1.0" encoding="utf-8"?>
<svg version="1.1" xmlns:xlink="http://www.w3.org/1999/xlink" width="914px" height="169px" xmlns="http://www.w3.org/2000/svg">
  <g transform="matrix(1 0 0 1 -263 -353 )">
    <path d="M 264 356  A 2 2 0 0 1 266 354 L 1174 354  A 2 2 0 0 1 1176 356 L 1176 519  A 2 2 0 0 1 1174 521 L 266 521  A 2 2 0 0 1 264 519 L 264 356  Z " fill-rule="nonzero" fill="#f2f2f2" stroke="none" fill-opacity="0" />
    <path d="M 263.5 356  A 2.5 2.5 0 0 1 266 353.5 L 1174 353.5  A 2.5 2.5 0 0 1 1176.5 356 L 1176.5 519  A 2.5 2.5 0 0 1 1174 521.5 L 266 521.5  A 2.5 2.5 0 0 1 263.5 519 L 263.5 356  Z " stroke-width="1" stroke-dasharray="3,1" stroke="#d7d7d7" fill="none" stroke-dashoffset="0.5" />
  </g>
</svg>