<?xml version="1.0" encoding="utf-8"?>
<svg version="1.1" xmlns:xlink="http://www.w3.org/1999/xlink" width="914px" height="162px" xmlns="http://www.w3.org/2000/svg">
  <g transform="matrix(1 0 0 1 -263 -823 )">
    <path d="M 264 826  A 2 2 0 0 1 266 824 L 1174 824  A 2 2 0 0 1 1176 826 L 1176 982  A 2 2 0 0 1 1174 984 L 266 984  A 2 2 0 0 1 264 982 L 264 826  Z " fill-rule="nonzero" fill="#f2f2f2" stroke="none" fill-opacity="0" />
    <path d="M 263.5 826  A 2.5 2.5 0 0 1 266 823.5 L 1174 823.5  A 2.5 2.5 0 0 1 1176.5 826 L 1176.5 982  A 2.5 2.5 0 0 1 1174 984.5 L 266 984.5  A 2.5 2.5 0 0 1 263.5 982 L 263.5 826  Z " stroke-width="1" stroke-dasharray="3,1" stroke="#d7d7d7" fill="none" stroke-dashoffset="0.5" />
  </g>
</svg>