<?xml version="1.0" encoding="utf-8"?>
<svg version="1.1" xmlns:xlink="http://www.w3.org/1999/xlink" width="914px" height="124px" xmlns="http://www.w3.org/2000/svg">
  <g transform="matrix(1 0 0 1 -1246 -640 )">
    <path d="M 1247 643  A 2 2 0 0 1 1249 641 L 2157 641  A 2 2 0 0 1 2159 643 L 2159 761  A 2 2 0 0 1 2157 763 L 1249 763  A 2 2 0 0 1 1247 761 L 1247 643  Z " fill-rule="nonzero" fill="#ffffff" stroke="none" />
    <path d="M 1246.5 643  A 2.5 2.5 0 0 1 1249 640.5 L 2157 640.5  A 2.5 2.5 0 0 1 2159.5 643 L 2159.5 761  A 2.5 2.5 0 0 1 2157 763.5 L 1249 763.5  A 2.5 2.5 0 0 1 1246.5 761 L 1246.5 643  Z " stroke-width="1" stroke-dasharray="3,1" stroke="#d7d7d7" fill="none" stroke-dashoffset="0.5" />
  </g>
</svg>