<?xml version="1.0" encoding="utf-8"?>
<svg version="1.1" xmlns:xlink="http://www.w3.org/1999/xlink" width="18px" height="18px" xmlns="http://www.w3.org/2000/svg">
  <g transform="matrix(1 0 0 1 -751 -207 )">
    <path d="M 15.6010861808036 17.8971428571429  C 16.9217199241071 17.9155226852679  17.9882630959821 16.8473965982143  17.8971428571429 15.5298053571429  L 17.8971428571429 3.58804129017857  C 17.9882425647321 2.27322530357143  16.9194586138393 1.20232394196429  15.6010656294643 1.23428571428571  L 14.4068398794643 1.23428571428571  L 14.4068398794643 0.25468531473214  C 14.4068398794643 0.119622595982143  14.2934858839286 0.00850935937499863  14.153653828125 0.00850935937499863  L 13.4662113482143 0.00850935937499863  C 13.3232134419643 0.00850935937499863  13.2130458482143 0.118718075892857  13.2130458482143 0.25468531473214  L 13.2130458482143 1.23428571428571  L 4.85642593526785 1.23428571428571  L 4.85642593526785 0.25468531473214  C 4.85642593526785 0.119622595982143  4.74307193973214 0.00850935937499863  4.60326043526786 0.00850935937499863  L 3.91579738392857 0.00850935937499863  C 3.77279947767858 0.00850935937499863  3.66263188392858 0.118718075892857  3.66263188392858 0.25468531473214  L 3.66263188392858 1.23428571428571  L 2.46840615401785 1.23428571428571  C 1.14777241071428 1.20232396205357  0.0812292388392897 2.27045004910714  0.102857142857143 3.58804129017857  L 0.102857142857143 15.5298053571429  C 0.081229218750003 16.84462134375  1.14999259821428 17.9155227053571  2.46840615401785 17.8971428571429  L 15.6010861808036 17.8971428571429  Z M 1.33714285714286 15.5298259084821  L 1.33714285714286 6  L 16.7657142857143 6  L 16.7657142857143 15.5298259084821  C 16.7944279620536 16.1888784910714  16.2615983705357 16.7217492053571  15.6010656294643 16.6628571428571  L 2.46838558258929 16.6628571428571  C 1.81031974553572 16.7217492053571  1.27502325000001 16.1863293616071  1.33714285714286 15.5298259084821  Z M 15.6010245267857 2.46857142857143  C 16.2590903638393 2.39611799330357  16.794386859375 2.93153783705357  16.7657142857143 3.58804129017857  L 16.7657142857143 4.78372662723214  L 16.7944279620536 5  L 1.33714285714286 5  L 1.33714285714286 3.58804129017857  C 1.27502325000001 2.92898870758929  1.80785284151786 2.39611799330357  2.46838558258929 2.46857142857143  L 3.66261133258928 2.46857142857143  L 3.66261133258928 3.343756640625  C 3.66261133258928 3.478819359375  3.775965328125 3.58993259598214  3.91577683258929 3.58993257589286  L 4.60323986383928 3.58993257589286  C 4.74623777008929 3.58993257589286  4.85640536383929 3.479723859375  4.85640536383929 3.343756640625  L 4.85640536383929 2.46857142857143  L 13.2130047455357 2.46857142857143  L 13.2130047455357 3.343756640625  C 13.2130047455357 3.478819359375  13.3263587410714 3.58993259598214  13.4661702254464 3.58993257589286  L 14.1536127254464 3.58993257589286  C 14.2966311830357 3.58993257589286  14.4067987767857 3.479723859375  14.4067987767857 3.343756640625  L 14.4067987767857 2.46857142857143  L 15.6010245267857 2.46857142857143  Z M 8.04141849776787 13.7466691674107  C 7.82093941071429 13.4671284040179  7.71732966294643 13.1168287767857  7.730589234375 12.6514285714286  L 6.60560112723214 12.6514285714286  L 6.60560112723214 12.6957496941964  C 6.61207672767857 13.0576026495536  6.66805477901786 13.3864813727679  6.77335025892857 13.6824886808036  C 6.87850181919643 13.9785165401786  7.03144954687499 14.2318465111607  7.23219344196428 14.4422935513393  C 7.4327934375 14.6529050424107  7.68271084151786 14.8157203660714  7.98213069642858 14.9307600736607  C 8.28140665178571 15.0457792299107  8.63170627901786 15.1034224419643  9.03302961830357 15.1034224419643  C 9.36188779017857 15.1034224419643  9.67442331696428 15.0541050133929  9.97045119642858 14.9554085022321  C 10.2664790558036 14.8567325424107  10.5262846272321 14.71704440625  10.7500117901786 14.5360562544643  C 10.9735745022321 14.3551914508929  11.1511912098214 14.1348768348214  11.282861953125 13.8749273638393  C 11.4143682254464 13.6151217924107  11.4802138727679 13.3208001964286  11.4802138526786 12.9917775535714  C 11.4802138526786 12.5445082299107  11.3699845848214 12.1646057946429  11.1496493973214 11.8520908392857  C 10.9291703102679 11.5397197633929  10.6217330424107 11.3438891049107  10.2270292232143 11.2649483571429  L 10.2270292232143 11.2452131651786  C 10.5625274665179 11.1268020133929  10.8092173660714 10.9377758973214  10.9670988816964 10.6778264263393  C 11.1249804174107 10.4180208549107  11.2039211651786 10.1138111116071  11.2039211852679 9.76507384821429  C 11.2039211852679 9.46257036830357  11.1413236339286 9.19445958482143  11.0164574330357 8.96086480580357  C 10.8914062098214 8.72743449776786  10.7253633616071 8.53501638616071  10.5181438459822 8.38361047098214  C 10.3109243504464 8.23236900669643  10.0773501227679 8.11718539955357  9.81754457142857 8.03824463169643  C 9.55757454910715 7.95930386383929  9.29287629241072 7.91983347991072  9.02320314508929 7.91983347991072  C 8.67444531026786 7.91983347991072  8.36207425446429 7.97903905580357  8.08578156696429 8.09745020758929  C 7.80948889955358 8.215861359375  7.57420840848215 8.38038294642857  7.380248484375 8.59082998660714  C 7.18614466071429 8.80144147767857  7.03319693303572 9.04967316964285  6.92140530133929 9.33583343303571  C 6.80946977008929 9.62199369642857  6.74701611830358 9.93282295982143  6.73392097767857 10.2857142857143  L 7.85882687946429 10.2857142857143  C 7.852207359375 10.0906839241071  7.87194255133929 9.91802155580357  7.91803243526786 9.75027244419642  C 7.96397841964286 9.5825233125  8.03473730357144 9.431261296875  8.13018573883929 9.29636304910715  C 8.225469703125 9.16160870089286  8.34558711830357 9.05460695758929  8.49035298214285 8.97566620982143  C 8.63497492633928 8.89672544196429  8.80609548214285 8.85725505803572  9.00344738169643 8.85725505803572  C 9.31921043303572 8.85725505803572  9.57730974107143 8.946063421875  9.77807418750001 9.12368012946429  C 9.97865363169644 9.30131740848215  10.0790358549107 9.538119140625  10.0790358549107 9.83416757142857  C 10.0790358549107 10.0447790625  10.0346316830357 10.2223957901786  9.94584387053572 10.3670177142857  C 9.85703550669643 10.5117835580357  9.74016616741072 10.6252609017857  9.59554422321429 10.707449765625  C 9.45075780803572 10.7897825089286  9.28625677232144 10.8473023727679  9.10216446428572 10.8801326852679  C 8.91990217953635 10.9129435047679  8.73465448236394 10.9261754836184  8.549579109375 10.9196030691964  L 8.549579109375 11.7583486875  C 8.77314182142858 11.7518936383929  8.991914625 11.7583486875  9.20577421205358 11.7780838794643  C 9.41946932812501 11.7978190714286  9.61188743973215 11.8488427633929  9.78302854687501 11.9310316071429  C 9.95400520312501 12.0133643504464  10.0921515267857 12.1333173147321  10.1974470066964 12.2911988504464  C 10.3025985669643 12.4491009375  10.35534909375 12.662939953125  10.35534909375 12.9325925491071  C 10.35534909375 13.3272963683036  10.2286121584822 13.6316500111607  9.97544665848215 13.8453245758929  C 9.72213725892857 14.0591841428571  9.40805991964286 14.1660419866071  9.03309129241072 14.1660419866071  C 8.59229756919643 14.1660419866071  8.26173313392858 14.0263538303571  8.04141849776787 13.7466691674107  Z " fill-rule="nonzero" fill="#aaaaaa" stroke="none" transform="matrix(1 0 0 1 751 207 )" />
  </g>
</svg>