<?xml version="1.0" encoding="utf-8"?>
<svg version="1.1" xmlns:xlink="http://www.w3.org/1999/xlink" width="8px" height="8px" xmlns="http://www.w3.org/2000/svg">
  <g transform="matrix(1 0 0 1 -471 -3051 )">
    <path d="M 7.96151111111111 4  L 4.00004444444444 7.96151111111111  L 0.0385777777777778 4  L 4.00004444444444 0.0385333333333335  L 7.96151111111111 4  Z M 4.00004444444444 0.671555555555556  L 0.6716 4  L 4.00008888888889 7.32848888888889  L 7.32853333333333 4  L 4.00004444444444 0.671555555555556  Z M 4.4316 2.33995555555556  L 4.21595555555556 4.75555555555556  L 4.21466666666667 4.75555555555555  C 4.20314096790065 4.85658605671848  4.11764136526997 4.93288631822856  4.01595555555556 4.93288631822856  C 3.91426974584114 4.93288631822856  3.82877014321046 4.85658605671848  3.81724444444444 4.75555555555556  L 3.81595555555556 4.75555555555556  L 3.55928888888889 2.36  C 3.55230198466035 2.32843779233463  3.54877728992989 2.29620785400571  3.54877728992989 2.26388155227769  C 3.54877728992989 2.01827438753072  3.74788123629403 1.81917044116658  3.993488401041 1.81917044116658  C 4.23909556578798 1.81917044116658  4.43819951215211 2.01827438753072  4.43819951215211 2.26388155227769  C 4.43819951215211 2.28938058672621  4.43600640793434 2.31483237836159  4.43164444444444 2.33995555555556  Z M 3.99373333333333 5.2  C 4.21464723326565 5.2  4.39373333333333 5.37908610006768  4.39373333333333 5.6  C 4.39373333333333 5.82091389993232  4.21464723326565 6  3.99373333333333 6  C 3.77281943340102 6  3.59373333333333 5.82091389993232  3.59373333333333 5.6  C 3.59373333333333 5.37908610006768  3.77281943340102 5.2  3.99373333333333 5.2  Z " fill-rule="nonzero" fill="#d9001b" stroke="none" transform="matrix(1 0 0 1 471 3051 )" />
  </g>
</svg>