<?xml version="1.0" encoding="utf-8"?>
<svg version="1.1" xmlns:xlink="http://www.w3.org/1999/xlink" width="104px" height="104px" xmlns="http://www.w3.org/2000/svg">
  <g transform="matrix(1 0 0 1 1936 -1562 )">
    <path d="M -1935 1566  A 3 3 0 0 1 -1932 1563 L -1836 1563  A 3 3 0 0 1 -1833 1566 L -1833 1662  A 3 3 0 0 1 -1836 1665 L -1932 1665  A 3 3 0 0 1 -1935 1662 L -1935 1566  Z " fill-rule="nonzero" fill="#000000" stroke="none" fill-opacity="0.0196078431372549" />
    <path d="M -1935.5 1566  A 3.5 3.5 0 0 1 -1932 1562.5 L -1836 1562.5  A 3.5 3.5 0 0 1 -1832.5 1566 L -1832.5 1662  A 3.5 3.5 0 0 1 -1836 1665.5 L -1932 1665.5  A 3.5 3.5 0 0 1 -1935.5 1662 L -1935.5 1566  Z " stroke-width="1" stroke-dasharray="9,4" stroke="#d9d9d9" fill="none" stroke-dashoffset="0.5" />
  </g>
</svg>