<?xml version="1.0" encoding="utf-8"?>
<svg version="1.1" xmlns:xlink="http://www.w3.org/1999/xlink" width="13px" height="13px" xmlns="http://www.w3.org/2000/svg">
  <g transform="matrix(1 0 0 1 -929 -1574 )">
    <path d="M 13 6.5  C 13 2.91014912609984  10.0898508739002 0  6.5 0  C 2.91014912609984 0  0 2.91014912609984  0 6.5  C 0 10.0898508739002  2.91014912609984 13  6.5 13  C 10.0898508739002 13  13 10.0898508739002  13 6.5  Z M 7.19271428571429 6.5  L 9.14271428571429 8.45  L 8.45 9.14271428571429  L 6.5 7.19271428571429  L 4.55 9.14271428571429  L 3.85728571428571 8.45  L 5.80728571428571 6.5  L 3.85728571428571 4.55  L 4.55 3.85728571428571  L 6.5 5.80728571428571  L 8.45 3.85728571428571  L 9.14271428571429 4.55  L 7.19271428571429 6.5  Z " fill-rule="nonzero" fill="#778fa0" stroke="none" transform="matrix(1 0 0 1 929 1574 )" />
  </g>
</svg>