<?xml version="1.0" encoding="utf-8"?>
<svg version="1.1" xmlns:xlink="http://www.w3.org/1999/xlink" width="439px" height="32px" xmlns="http://www.w3.org/2000/svg">
  <g transform="matrix(1 0 0 1 -402 -994 )">
    <path d="M 403 996  A 1 1 0 0 1 404 995 L 839 995  A 1 1 0 0 1 840 996 L 840 1024  A 1 1 0 0 1 839 1025 L 404 1025  A 1 1 0 0 1 403 1024 L 403 996  Z " fill-rule="nonzero" fill="#ffffff" stroke="none" />
    <path d="M 402.5 996  A 1.5 1.5 0 0 1 404 994.5 L 839 994.5  A 1.5 1.5 0 0 1 840.5 996 L 840.5 1024  A 1.5 1.5 0 0 1 839 1025.5 L 404 1025.5  A 1.5 1.5 0 0 1 402.5 1024 L 402.5 996  Z " stroke-width="1" stroke-dasharray="9,4" stroke="#d9d9d9" fill="none" stroke-dashoffset="0.5" />
  </g>
</svg>