<?xml version="1.0" encoding="utf-8"?>
<svg version="1.1" xmlns:xlink="http://www.w3.org/1999/xlink" width="14px" height="14px" xmlns="http://www.w3.org/2000/svg">
  <g transform="matrix(1 0 0 1 -505 -791 )">
    <path d="M 512 791  C 515.92 791  519 794.08  519 798  C 519 801.92  515.92 805  512 805  C 508.08 805  505 801.92  505 798  C 505 794.08  508.08 791  512 791  Z " fill-rule="nonzero" fill="#ffffff" stroke="none" fill-opacity="0" />
    <path d="M 512 791.5  C 515.64 791.5  518.5 794.36  518.5 798  C 518.5 801.64  515.64 804.5  512 804.5  C 508.36 804.5  505.5 801.64  505.5 798  C 505.5 794.36  508.36 791.5  512 791.5  Z " stroke-width="1" stroke="#169bd5" fill="none" />
  </g>
</svg>