<?xml version="1.0" encoding="utf-8"?>
<svg version="1.1" xmlns:xlink="http://www.w3.org/1999/xlink" width="914px" height="243px" xmlns="http://www.w3.org/2000/svg">
  <g transform="matrix(1 0 0 1 -402 -232 )">
    <path d="M 403 235  A 2 2 0 0 1 405 233 L 1313 233  A 2 2 0 0 1 1315 235 L 1315 472  A 2 2 0 0 1 1313 474 L 405 474  A 2 2 0 0 1 403 472 L 403 235  Z " fill-rule="nonzero" fill="#f2f2f2" stroke="none" fill-opacity="0" />
    <path d="M 402.5 235  A 2.5 2.5 0 0 1 405 232.5 L 1313 232.5  A 2.5 2.5 0 0 1 1315.5 235 L 1315.5 472  A 2.5 2.5 0 0 1 1313 474.5 L 405 474.5  A 2.5 2.5 0 0 1 402.5 472 L 402.5 235  Z " stroke-width="1" stroke-dasharray="3,1" stroke="#d7d7d7" fill="none" stroke-dashoffset="0.5" />
  </g>
</svg>